/* XPM */
static char *_e584ca792cb41d08e751234efcd6ca4uIWuge9yg4rAgikc[] = {
/* columns rows colors chars-per-pixel */
"64 64 187 2 ",
"   c #0D0805",
".  c #150D05",
"X  c #190E05",
"o  c #150D08",
"O  c #1A1106",
"+  c #171907",
"@  c #1B1B07",
"#  c #161209",
"$  c #1A1509",
"%  c #171909",
"&  c #1C1C09",
"*  c #231E0A",
"=  c #2A1F0D",
"-  c #251F17",
";  c #1E2109",
":  c #202007",
">  c #21230C",
",  c #2D220E",
"<  c #252B0D",
"1  c #282F0F",
"2  c #3D2C05",
"3  c #32240F",
"4  c #3E2E0A",
"5  c #2A320F",
"6  c #3F300C",
"7  c #272115",
"8  c #2E2412",
"9  c #2E2618",
"0  c #2E2819",
"q  c #312613",
"w  c #342915",
"e  c #322719",
"r  c #322A1B",
"t  c #293110",
"y  c #2F3A14",
"u  c #3E3114",
"i  c #36311F",
"p  c #3E341D",
"a  c #3E3621",
"s  c #3F3825",
"d  c #412E03",
"f  c #402F0C",
"g  c #443205",
"h  c #493807",
"j  c #42320C",
"k  c #49360A",
"l  c #4C3A0D",
"z  c #433413",
"x  c #473811",
"c  c #493A14",
"v  c #42361D",
"b  c #45381E",
"n  c #4B3C1C",
"m  c #513E12",
"M  c #423720",
"N  c #453A22",
"B  c #493D23",
"V  c #453D29",
"C  c #4A3F29",
"Z  c #3A4A17",
"A  c #3B4B18",
"S  c #3F501A",
"D  c #3A5321",
"F  c #4F411C",
"G  c #544316",
"H  c #584617",
"J  c #53431C",
"K  c #594619",
"L  c #5A491D",
"P  c #42541B",
"I  c #475C1F",
"U  c #495D1E",
"Y  c #4A601F",
"T  c #4F4225",
"R  c #4D422B",
"E  c #524324",
"W  c #594721",
"Q  c #574822",
"!  c #5C4C25",
"~  c #524529",
"^  c #56492B",
"/  c #5C4D2B",
"(  c #4A5F20",
")  c #5E502B",
"_  c #534931",
"`  c #5C4E31",
"'  c #5E5031",
"]  c #604F23",
"[  c #635025",
"{  c #63532C",
"}  c #68572C",
"|  c #67582C",
" . c #6A5A2D",
".. c #655534",
"X. c #695734",
"o. c #675835",
"O. c #6A5A35",
"+. c #665738",
"@. c #66593A",
"#. c #6C5C3A",
"$. c #4B6121",
"%. c #4C6321",
"&. c #4C6322",
"*. c #4C6422",
"=. c #4A6225",
"-. c #4B6525",
";. c #4D6824",
":. c #49642B",
">. c #49652D",
",. c #4B6A2A",
"<. c #4C6B2A",
"1. c #4B6D2D",
"2. c #516622",
"3. c #536B23",
"4. c #596D24",
"5. c #4B702F",
"6. c #567125",
"7. c #5A7425",
"8. c #5D7B28",
"9. c #486733",
"0. c #496934",
"q. c #476A3D",
"w. c #48693A",
"e. c #4C7332",
"r. c #4C7837",
"t. c #4D7C3A",
"y. c #617525",
"u. c #607F2A",
"i. c #6F613D",
"p. c #72633D",
"a. c #77693D",
"s. c #655C44",
"d. c #685E45",
"f. c #6E6340",
"g. c #6E654C",
"h. c #726543",
"j. c #756945",
"k. c #7D6D43",
"l. c #70674E",
"z. c #73694D",
"x. c #7B6D4D",
"c. c #736A51",
"v. c #756B52",
"b. c #7D7356",
"n. c #85784C",
"m. c #847755",
"M. c #857956",
"N. c #8B7E59",
"B. c #8E815C",
"V. c #91835D",
"C. c #958A5F",
"Z. c #8E8362",
"A. c #928663",
"S. c #948865",
"D. c #958969",
"F. c #9D9575",
"G. c #A19775",
"H. c #A79A72",
"J. c #A79D7D",
"K. c #B9AF87",
"L. c #B9B287",
"P. c #B6B08F",
"I. c #B5AF93",
"U. c #B6B195",
"Y. c #B7B197",
"T. c #C2B793",
"R. c #C2BB90",
"E. c #C1BA9B",
"W. c #CCC59D",
"Q. c #CCC6A4",
"!. c #CBC7A8",
"~. c #D5CEAD",
"^. c #D9CFA8",
"/. c #D8D5A7",
"(. c #D6D1AD",
"). c #D8D3AA",
"_. c #D4CFB1",
"`. c #D5D2B5",
"'. c #D8D3B5",
"]. c #DBD7B6",
"[. c #D8D5BA",
"{. c #DFDBBA",
"}. c #E1DCB5",
"|. c #E1DCBB",
" X c #E4E1B7",
".X c #E2DEC0",
"XX c #E4E0C1",
/* pixels */
"*.*.$.$.*.*.$.$.$.$.$.$.$.$.$.$.$.$.$.$.$.$.$.$.*.%.$.$.$.$.$.$.$.$.$.$.$.$.$.$.$.$.$.$.%.*.$.$.$.$.$.$.$.Y $.$.$.$.$.$.$.$.%.*.",
"*.*.%.$.*.%.$.$.$.$.$.$.$.$.$.$.$.$.$.$.%.%.%.%.*.*.$.$.$.$.$.$.$.$.$.$.$.$.$.$.$.$.$.$.*.*.%.$.$.$.$.$.=.=.$.$.$.$.$.$.$.Y $.*.",
"*.*.%.$.$.$.$.$.$.$.$.$.$.$.$.$.$.$.%.%.%.%.%.%.%.%.$.%.%.*.*.%.$.$.%.*.*.*.%.$.$.$.$.$.%.%.%.$.$.$.$.=.>.>.:.:.:.:.:.=.$.$.$.$.",
"*.*.$.$.$.$.$.$.$.$.$.$.$.$.*.U P Z Z Z Z Z Z A Z Z Z Z A A A A A A Z Z Z Z A Z Z Z Z Z Z Z A P U $.$.=.>.9.>.>.9.9.>.=.$.$.$.$.",
"$.$.$.$.$.$.$.U $.$.*.*.-.-.;.P t & + + + + @ @ @ @ @ @ @ @ @ @ & & + + + + @ @ + + @ @ + & > y P %.$.$.:.>.>.9.q.q.:.$.$.$.$.$.",
"$.$.$.$.$.$.-.-.$.-.<.<.<.;.;.A &   o o o o O O O O O X o o X O O O o o o o O O o o o O o o + < S *.%.$.-.:.:.>.q.w.:.Y Y $.$.$.",
"$.$.$.$.$.-.1.e.,.,.r.r.1.;.*.Z + o - r r e q 8 8 8 q q 8 8 q q q q e e e q 8 8 r r 8 8 9 7 $ > S *.*.%.*.%.$.=.:.:.$.$.$.$.$.$.",
"$.$.$.$.U -.e.e.,.1.r.r.,.-.%.Z + o r V V V N b v v b b v v v v p v V C B N v v B B N a a r $ > A *.*.%.%.$.$.$.Y Y $.( $.$.$.$.",
"%.%.$.$.$.$.,.1.,.,.,.-.$.$.$.Z + o r R _ _ ~ ~ ~ ~ T E ~ ~ B v v b ~ ^ ^ ~ ~ ~ ~ ~ ~ R V r @ > A %.$.$.$.$.$.$.Y $.$.$.$.$.$.$.",
"*.*.$.$.$.$.-.-.-.-.$.$.$.$.$.Z + o e C _ ` ' ' ' ) / @.b.x.~ z z n ^ ` ' ' ' ` / @.b.v._ e $ : A $.$.$.$.$.$.$.$.$.( $.%.%.$.$.",
"*.*.$.$.$.*.*.%.$.$.%.%.$.$.$.Z + o q N ~ ` @.#.+.....M.E.P...4 z n E / +.#.+...' m.E.Y.s.8 O & A $.$.$.$.$.( ( $.$.$.$.%.*.%.%.",
"*.%.$.$.$.%.*.%.$.$.*.*.$.$.$.Z @ X q b E ` #.#.#.o.O.S.|.`.f.2 j c F / O.p.#.+...A.|.[.l.8 o & Z $.$.$.( ( ( ( $.$.$.$.$.*.*.*.",
"$.$.$.$.$.$.%.*.%.*.*.*.$.$.$.A @ O q b ^ ..o.O.O.X.O.S.|.(.j.j j x J ) X.#.#.O.O.S. X[.l.8 o & Z $.$.$.$.$.$.$.$.$.( $.$.$.$.$.",
"$.$.$.$.( $.$.%.%.%.*.%.$.$.$.A @ O q b ^ ..o.O.O.X.X.A.}.(.j.j j x L [ X.#.#.O.O.S.|.`.l., X & A %.$.$.$.$.$.$.$.$.( ( $.$.$.$.",
"$.$.$.$.( ( $.$.$.$.$.$.$.$.$.Z + o q b E / O.#.#.O.X.A.}.(.p.2 2 x L [ X.#.O.X.+.A.|.`.g., . @ A %.$.$.$.$.$.$.$.$.( ( $.$.$.$.",
"$.$.$.$.( ( $.$.$.$.$.$.$.$.%.Z + o q b E / O.#.#.O.X.A.}.(.p.2 2 x J ! X.#.O.o.+.A.{.`.g.= . + Z *.$.$.$.$.$.$.$.$.( ( $.$.$.$.",
"$.$.$.$.$.$.$.$.$.$.$.$.$.%.*.Z + . q N E / o.#.#.O.O.A.|.(.h.2 4 z n Q O.p.O...+.S.|.`.l.8 . + Z *.$.$.$.$.$.$.$.$.$.$.$.$.$.$.",
"$.$.$.$.$.$.$.$.$.$.$.$.$.%.*.A + o w B ~ ^ ..#.#.#.O.A.|.(.h.4 j c F Q O.#.#.O.+.A.{.`.c.8 o + Z %.$.$.$.$.$.$.$.$.$.$.$.$.$.$.",
"$.$.$.$.$.$.$.$.$.$.$.$.$.$.%.A @ O r B ~ ^ +.#.#.#.o.A.{.(.h.4 z n Q [ } O.#.#.o.Z.{.`.c.8 o + Z %.$.$.$.$.%.%.$.$.*.*.$.$.$.$.",
"$.$.$.*.*.$.$.$.$.$.$.$.$.$.$.Z @ O r B ~ ` +.#.#.#.o.A.{.(.h.4 z n Q { ..O.#.#.o.Z.{.`.c.8 o @ Z $.$.$.$.$.*.*.$.$.*.*.$.$.( ( ",
"$.$.$.*.*.*.*.*.*.*.%.$.$.$.$.Z + o q N ~ ` ..#.#.#.#.A.}.~.h.4 4 c E / +.#.#.O.#.A.|.`.c.8 . + Z $.$.$.$.$.$.$.$.$.%.$.$.( ( ( ",
"$.$.$.$.*.*.*.*.*.*.$.$.$.$.$.Z + o q N ~ ` o.#.#.#.#.A.}.~.h.4 4 z F / O.i.#.+.#.D.|.`.g.8 . + Z $.$.$.$.$.%.%.*.*.%.$.$.$.( ( ",
"$.$.$.$.$.$.$.$.$.$.$.$.$.$.$.Z + o 8 M ~ ` #.#.#.#.#.A.}.~.j.j z c J / #.i.#.+.O.A.|.`.g.= . @ A $.$.( ( $.*.2.3.3.%.$.$.$.$.$.",
"$.$.$.$.$.( ( $.$.%.*.*.$.$.$.Z + o q M ~ ` #.h.#.#.#.A.}.(.j.j z c J / O.i.#.O.O.S.|.`.g.= . @ A %.2.2.*.2.3.4.4.3.%.$.$.$.$.$.",
"$.$.$.$.( ( ( $.*.2.3.3.*.$.$.Z @ X q N ~ ` #.#.#.#.o.A.}.~.j.j j x J / X.#.#.O.#.D.}._.g.8 . + Z 2.4.4.4.4.y.y.4.2.%.$.$.$.$.$.",
"$.$.$.$.*.*.*.2.3.7.7.3.*.$.$.Z @ X q N ~ ` o.#.#.o...A.}.(.j.j j x G ! } X.O.X.O.A.|.`.l.8 . + Z 2.4.7.4.4.y.7.3.%.$.$.$.$.$.$.",
"$.( ( *.7.7.6.7.u.u.7.2.%.$.$.Z + o q b E / o.#.#.X.{ V.|.(.h.j k c G L } X.X.} { B.|.].c.8 . + Z *.2.2.2.2.2.2.%.$.( $.%.%.$.$.",
"$.$.( *.7.7.6.7.8.8.3.*.$.$.$.Z + o q b ~ #.M.A.S.A.V.H.Q.L.X.d k c G | n.C.C.B.N.G.Q.Y.d.q o + Z *.*.*.%.$.$.( $.( ( $.*.*.$.$.",
"*.*.$.%.*.*.*.*.2.2.*.$.$.$.%.A @ X q n / m.T.}.}.}.}.W.H.k.G 2 2 k K n.R. X}.}.}.W.F.z.~ q X @ A *.*.%.$.$.$.$.$.$.$.$.*.*.*.%.",
"*.*.$.$.$.( ( ( ( ( $.$.$.$.$.A @ X q b E x.K.^.(.).).K.k.G k g 2 g G k.L././.).).K.j.n v q X @ A *.*.$.$.$.$.$.$.$.( $.%.*.%.%.",
"$.$.$.$.$.$.$.$.( $.$.%.%.*.%.A @ X q z n Q #.a.a.a.a.O.G g g g g h h G  .p.a.a.a.X.E c z q X + Z %.$.$.$.$.$.$.$.$.$.$.$.$.$.$.",
"$.$.$.$.$.$.$.$.$.$.$.*.*.*.*.A @ X 3 z z z j d d d g g d d g k h h g g 2 2 g g 2 2 j z z q X + Z $.$.$.$.$.$.$.$.$.$.$.$.$.$.$.",
"$.$.$.$.$.$.$.$.$.$.$.%.*.*.*.A @ X q z z j j d d d g g g g g g g g g g d d g g g j j z z q O & Z $.$.$.$.$.$.$.$.$.$.$.$.$.$.$.",
"$.$.$.$.$.$.$.$.$.$.$.$.%.*.*.A @ X q b n c x k k k l l k k k g g g l l h h k l c x c c b w O @ A $.$.$.$.$.$.$.$.$.$.$.$.$.$.$.",
"$.$.*.*.$.$.( ( $.$.( $.$.%.%.Z + . q n / / J G G K K G G m l k h l K L H G G G L W E n n w X @ Z $.$.$.$.$.$.$.( ( ( $.$.$.$.$.",
"$.%.*.*.$.$.( ( $.$.( ( $.$.$.Z + . q B / { [ ] [ [ ]  .k.a.L k k l L [ [ [ ! ] [ #.x.z.^ w X @ Z %.$.$.$.$.$.$.( ( ( $.$.%.%.%.",
"$.$.%.$.$.$.$.$.$.$.$.$.$.$.$.Z @ X w n E / o.#.X.} } n.R.K.O.g g l G ] }  .} } X.N.E.Y.d.q O * A *.*.*.*.$.$.$.$.$.$.$.$.$.*.*.",
"$.$.$.$.$.$.$.$.$.$.$.$.$.$.$.Z @ O w b n / #.p.#.X.X.S. X).p.2 g l G ! X.#.O.X.O.S.XX'.l., O : A *.*.*.*.$.$.$.$.$.$.Y Y $.*.*.",
"$.$.$.$.$.$.$.$.$.$.,.,.$.$.$.A @ O q b E / +.#.#.O.X.A.|.(.p.2 2 x L [ X.#.#.O.+.A.|.`.g., O ; A *.*.*.$.$.$.$.$.$.Y Y Y $.$.$.",
"$.$.$.$.$.$.$.$.$.-.1.5.,.-.-.A @ X 8 v ~ ' o.#.#.O.o.A.}.(.h.2 4 x Q [ X.#.#.O.+.A.|.`.g., O ; A *.*.$.$.$.=.=.$.$.=.:.:.=.$.$.",
"$.$.$.$.$.$.$.$.$.-.1.e.r.r.e.D % o 8 v ^ ..#.#.#.#.o.A.{.(.h.f j c J / X.#.O.O.#.D.|.`.c.q O ; A %.$.$.=.:.>.>.$.=.9.w.w.9.=.Y ",
"$.$.$.$.$.$.$.$.$.$.,.e.t.t.e.D % . 8 N ^ ..@.#.#.O.o.A.}.(.h.4 j c J / O.#.#.O.#.S.|.`.v.w $ ; A $.$.$.=.>.w.9.:.:.w.q.q.9.=.Y ",
"$.$.$.$.$.$.$.$.$.$.*.<.e.e.<.A & O q N ^ ` ....o.o.O.S.}.~.h.4 4 z E / #.p.p.#.o.Z.{.`.c.q O ; Z $.$.$.$.:.w.q.9.9.w.w.>.=.$.$.",
"$.$.$.$.$.*.*.%.$.$.%.-.,.,.%.Z @ O q N ~ ` ..o.o.O.O.S.}.~.h.4 4 c J / O.i.p.#...Z.{.`.c.8 + ; A $.$.$.Y =.9.w.0.0.0.>.=.$.$.( ",
"$.$.( $.$.*.*.*.%.$.$.$.%.%.$.Z @ o 8 v R ` #.#.#.#.O.A.{.(.j.z z n J Q ..#.#.#.o.A.{.`.l.q @ < A $.$.$.$.$.-.:.-.-.-.-.$.$.$.( ",
"( ( $.( $.$.*.*.$.$.$.$.$.$.$.Z + o 8 v ~ ` #.i.p.#.O.A.{.(.j.z z n J Q ..#.#.O.+.A.|.`.g.q @ < A $.$.$.$.$.*.*.Y %.*.%.$.$.( ( ",
"$.$.$.$.$.$.$.$.$.$.$.$.$.$.$.Z + o q N ~ ' o.#.#.O.O.A.|.(.h.4 4 z J / O.#.#.O.o.A.|.`.g., + > A $.$.$.$.$.%.*.$.$.$.$.$.$.$.$.",
"$.$.$.$.$.$.$.$.$.$.$.$.$.$.$.Z + o w N ~ ` o.O.O.O.O.S.|.(.p.2 2 z J [ #.p.#.O...Z.{.`.g., + > A $.$.$.$.$.$.$.$.$.$.$.$.$.$.$.",
"$.$.$.$.$.$.$.$.$.$.$.$.$.$.$.Z + X w B E / o.#.#.O.O.A.}.(.p.2 4 x G ! #.p.#.o...Z.{.`.g., @ < A $.$.$.$.$.$.$.$.$.$.$.$.$.$.$.",
"$.$.$.( $.$.$.$.$.$.$.$.$.$.$.Z + X w B E / o.#.#.O.X.V.}.(.h.4 j x G ! O.p.#.X...Z.{.`.g.q * 1 S $.$.$.$.$.$.$.$.$.$.$.$.$.$.( ",
"$.( ( ( ( ( ( ( $.$.$.$.$.$.$.Z + o q B ~ / o.#.#.O...B.].~.h.4 4 x Q [ } X.O.O.O.A.}._.g.q * 1 S %.$.$.$.$.$.$.$.$.$.$.$.( ( ( ",
"*.*.*.%.%.*.*.*.$.$.$.$.$.$.$.Z + o q N ~ / o.#.#.O.{ B.}.(.j.4 6 x Q ) { } O.O.+.A.|.`.l.q : t P *.*.%.%.%.$.$.%.*.*.%.$.( ( ( ",
"6.6.6.3.2.3.7.7.*.Y Y $.Y Y $.Z @ X q N ~ ` o.#.#.O...A.|.'.j.4 j c J ! { +.+.o.o.A.|.[.c.w > 5 P ;.2.2.3.2.%.%.2.3.3.3.%.$.$.$.",
"6.6.7.7.3.6.8.7.*.$.$.%.*.2.2.A @ O q N R @.N.D.D.A.A.J.!.P.@.6 z n E +.M.S.S.A.A.J.!.Y.s.w > 5 P *.2.3.4.4.2.2.4.4.4.2.%.$.$.$.",
"*.2.6.7.3.3.6.6.*.$.$.2.3.7.7.P @ X e B ~ b.E.XX|.}.|.!.G.z.E u u v ^ b.E.|.|.|..X!.F.l.R w > 1 P %.%.2.7.7.4.4.4.4.2.%.$.$.%.*.",
"$.*.3.3.2.2.2.2.*.$.$.2.3.7.8.U @ o r V R c.Y.[.'.'.'.I.z.T b z u b ~ b.Y.'.`.`.`.I.l.B a r > 1 A $.$.*.4.4.4.3.4.3.*.$.$.$.*.*.",
"$.$.*.*.%.%.%.%.$.$.$.*.*.3.7.P + o r V V _ s.c.v.v.c.s.R v v v p M N _ d.c.g.g.g.s.R N s i > 1 S $.$.$.*.2.*.*.2.*.*.%.%.*.*.*.",
"$.$.$.$.$.$.( ( ( ( $.$.$.;.3.P %   - r r 9 8 8 q q 8 8 8 8 q e e e 8 8 8 8 8 = , , 8 0 r 0 > 1 S $.$.$.$.( $.$.$.%.*.*.*.%.*.*.",
"$.$.$.$.$.$.$.$.$.$.$.$.%.*.2.S &   o # o o o o o o o o o X o o o O o o . o . . O O o o # # % 1 S $.$.$.$.$.$.$.$.$.*.*.$.$.$.$.",
"$.$.$.$.$.$.$.$.$.$.$.$.%.*.*.P t & & + + + + + + @ + + @ @ + + + + + + + + + @ : : @ + + ; < y P $.$.$.$.$.$.$.$.$.$.$.$.$.$.$.",
"$.$.( ( ( $.$.$.$.$.( ( $.$.$.I P Z Z Z Z Z Z Z Z Z Z Z Z Z Z Z Z Z Z Z Z Z Z Z A A Z Z Z Z A P I $.$.$.$.$.( ( $.$.$.$.$.$.$.$.",
"$.$.( ( $.$.$.$.$.$.( ( $.( $.$.$.$.%.%.*.*.%.%.%.*.*.*.%.$.$.$.$.$.$.%.%.*.*.%.$.$.%.%.%.%.%.$.$.$.$.$.$.$.( ( $.$.$.$.( $.$.$.",
"$.$.$.$.%.%.$.$.$.$.$.( $.$.$.$.$.$.$.*.*.*.*.%.*.*.*.*.$.$.$.$.$.$.$.$.$.$.$.$.$.$.*.*.*.*.%.%.*.%.$.$.$.$.$.( $.$.$.$.( $.$.$.",
"$.$.( $.*.*.$.$.$.$.$.$.$.$.$.$.$.$.$.%.*.*.%.$.*.*.*.%.$.$.$.$.$.$.$.$.$.$.$.$.$.$.*.*.*.*.$.%.*.*.$.$.$.$.( ( $.$.$.$.( $.$.$."
};
