/* XPM */
static char *_ff79664c4654d068c2a55bbbbe3bbc98bhaAU79ViGnM899[] = {
/* columns rows colors chars-per-pixel */
"64 64 232 2 ",
"   c #0A0402",
".  c #0C0402",
"X  c #170703",
"o  c #140C04",
"O  c #1A0D04",
"+  c #150C0A",
"@  c #161104",
"#  c #191205",
"$  c #1B1B07",
"%  c #171508",
"&  c #1A130A",
"*  c #1B1C09",
"=  c #180E14",
"-  c #1B1712",
";  c #240C01",
":  c #211C06",
">  c #291805",
",  c #221D0B",
"<  c #311B00",
"1  c #241E16",
"2  c #331F11",
"3  c #1C2106",
"4  c #1E2109",
"5  c #21220A",
"6  c #2C240D",
"7  c #28280A",
"8  c #2B2B0C",
"9  c #362703",
"0  c #3D2D03",
"q  c #32250D",
"w  c #352B0D",
"e  c #3D2D0B",
"r  c #3F3003",
"t  c #3E310C",
"y  c #2E2613",
"u  c #2B251B",
"i  c #332512",
"p  c #332913",
"a  c #3C2D12",
"s  c #322719",
"d  c #342B1B",
"f  c #3D2C19",
"g  c #2F3611",
"h  c #343617",
"j  c #3D3313",
"k  c #3E331B",
"l  c #322622",
"z  c #3D3627",
"x  c #422E01",
"c  c #422C0C",
"v  c #443203",
"b  c #493403",
"n  c #4C3B04",
"m  c #43330D",
"M  c #4A350B",
"N  c #463A08",
"B  c #4C3A0C",
"V  c #513D0D",
"C  c #442C11",
"Z  c #402718",
"A  c #433413",
"S  c #4A3615",
"D  c #453A13",
"F  c #4B3A13",
"G  c #43361B",
"H  c #4A351A",
"J  c #443A1C",
"K  c #4A3C1C",
"L  c #523D13",
"P  c #51381B",
"I  c #443A23",
"U  c #4C3D22",
"Y  c #463928",
"T  c #503B2C",
"R  c #3B4B17",
"E  c #3B4418",
"W  c #3C4B19",
"Q  c #3F511A",
"!  c #3C5421",
"~  c #43451B",
"^  c #4C431D",
"/  c #524215",
"(  c #54431C",
")  c #58491B",
"_  c #42541B",
"`  c #465A1E",
"'  c #495C1D",
"]  c #5A511F",
"[  c #604D1D",
"{  c #4A601F",
"}  c #7B641F",
"|  c #484523",
" . c #4D4324",
".. c #4E432B",
"X. c #534323",
"o. c #5B4525",
"O. c #544924",
"+. c #5B4927",
"@. c #53462B",
"#. c #554B2A",
"$. c #5B4C2B",
"%. c #495F20",
"&. c #5B5123",
"*. c #5C532D",
"=. c #4E4330",
"-. c #564736",
";. c #5C4D32",
":. c #5D5133",
">. c #5C533B",
",. c #634D27",
"<. c #624C2C",
"1. c #645726",
"2. c #6C5A26",
"3. c #64522D",
"4. c #6A552D",
"5. c #655B2C",
"6. c #6A5B2C",
"7. c #705A29",
"8. c #715A2B",
"9. c #604F31",
"0. c #645433",
"q. c #6B5533",
"w. c #655A33",
"e. c #6B5B34",
"r. c #64543A",
"t. c #6B563C",
"y. c #665A3A",
"u. c #6B5C3B",
"i. c #725B34",
"p. c #715C3B",
"a. c #4B6121",
"s. c #4D6825",
"d. c #49642B",
"f. c #4B6B2A",
"g. c #516722",
"h. c #536B23",
"j. c #596D24",
"k. c #4B702F",
"l. c #567125",
"z. c #5A7425",
"x. c #5D7B28",
"c. c #486733",
"v. c #496934",
"b. c #476A3D",
"n. c #48693A",
"m. c #4B7332",
"M. c #4C7938",
"N. c #617927",
"B. c #696135",
"V. c #6D623C",
"C. c #706532",
"Z. c #75663A",
"A. c #73653C",
"S. c #614E44",
"D. c #6D5E41",
"F. c #685846",
"G. c #6D6545",
"H. c #6D654A",
"J. c #746544",
"K. c #746945",
"L. c #7B6A47",
"P. c #73654C",
"I. c #736B4B",
"U. c #746A52",
"Y. c #786E55",
"T. c #7B7352",
"R. c #907B25",
"E. c #897A4B",
"W. c #867856",
"Q. c #8B7B55",
"!. c #917C58",
"~. c #B4A231",
"^. c #C9B23B",
"/. c #E4CE3D",
"(. c #F2DE3D",
"). c #8D825D",
"_. c #91845D",
"`. c #96875E",
"'. c #B59D47",
"]. c #B79D56",
"[. c #ACA757",
"{. c #B7A455",
"}. c #B9A850",
"|. c #8E8464",
" X c #8E8569",
".X c #938362",
"XX c #978766",
"oX c #948863",
"OX c #93846B",
"+X c #948271",
"@X c #9E9674",
"#X c #BA9F62",
"$X c #A59976",
"%X c #A8A565",
"&X c #B7AC6F",
"*X c #C0B043",
"=X c #C4B36D",
"-X c #EDDB47",
";X c #F1DC46",
":X c #EED757",
">X c #F2DB56",
",X c #DDCE6B",
"<X c #EDD767",
"1X c #F1D865",
"2X c #ECD874",
"3X c #F0DA74",
"4X c #ADA98B",
"5X c #B6AC85",
"6X c #B9B28C",
"7X c #B6AF91",
"8X c #B9B396",
"9X c #C6BD99",
"0X c #C8C19B",
"qX c #F1D980",
"wX c #C6C0A0",
"eX c #CCC4A3",
"rX c #D6CEA9",
"tX c #D5CEAD",
"yX c #D5D1AC",
"uX c #D9D4AA",
"iX c #D6CEB3",
"pX c #D5CEBC",
"aX c #D5D2B4",
"sX c #DAD4B3",
"dX c #DAD7B9",
"fX c #E0D9AF",
"gX c #E1DDB5",
"hX c #E2DBBB",
"jX c #E4E0BD",
"kX c #DFDBC1",
"lX c #E1DBC2",
"zX c #E1D9C9",
/* pixels */
"s.s.a.a.a.s.a.{ a.a.a.a.a.a.a.a.a.a.a.a.a.a.a.a.s.a.a.a.{ a.a.a.{ { { a.a.a.a.a.a.a.a.a.a.s.a.a.a.a.a.a.a.{ a.a.a.a.{ ' ' { a.s.",
"s.s.a.a.a.a.a.a.a.a.a.a.a.a.a.a.a.a.a.a.a.a.a.a.s.s.a.a.a.a.a.a.a.a.a.a.a.a.a.a.a.a.a.a.s.s.a.a.%.a.a.a.d.d.a.a.a.a.a.a.a.a.a.s.",
"s.s.a.a.a.a.a.a.a.a.a.a.%.%.a.a.a.a.a.a.a.a.a.a.a.a.a.a.a.a.a.a.a.a.a.s.s.s.a.a.a.a.a.a.a.a.a.a.a.a.' d.d.d.d.d.d.d.d.d.a.a.a.a.",
"s.s.a.a.a.a.a.a.a.a.a.a.a.a.a.%.W W W W W W W W W W R R R R R R R R R R R R R E E E R R R W _ _ ' a.a.d.d.c.d.d.c.c.d.d.a.a.a.a.",
"a.a.a.a.a.a.a.' a.a.s.s.s.s.s._ 8 - - 1 * $ $ $ $ 4 $ $ 3 3 $ 3 3 4 $ $ : : : # # # : : : : 8 E ` a.a.a.d.d.d.c.b.b.d.a.a.a.a.a.",
"%.a.%.a.a.a.s.s.a.s.f.f.f.s.s.W &   = = .     . o $ h | | ~ E ~ ~ ~ J J K K H H S S F K H k 6 g _ s.a.a.d.d.d.d.b.n.d.{ { a.a.a.",
"%.a.a.a.a.s.f.m.f.f.M.M.f.s.s.W % + 1 u +     . o k E.%X%X[.[.[.[.[.[.[.{.{.{.'.'.'.'.}.{.E.J 7 _ s.s.a.s.a.a.d.d.d.a.a.a.a.{ ' ",
"a.a.a.a.' s.m.m.f.f.m.m.f.s.a.W $ + d d , # # # # J E.%X%X[.[.[.[.}.,X2X2X2X<X1X:X:X:X1X3X{.X.7 W s.s.a.a.a.a.a.{ ' a.a.a.a.a.{ ",
"a.a.a.a.a.a.f.f.f.f.f.s.a.a.a.W $ @ p k w 9 9 9 9 w k I I J K J G C.=XqX2X<X1X>X;X;X;X>X1X}.O.8 W a.a.a.a.a.a.a.{ a.a.a.a.a.a.a.",
"s.s.a.a.a.a.s.s.s.s.a.a.a.a.a.W $ # w D D F D m v 9 : O O O O X X f E.#X].'.'.^./.(.(.;X:X}.) 8 W a.a.a.%.%.a.a.a.a.a.a.a.a.a.a.",
"s.s.a.a.a.s.s.a.a.a.a.a.a.a.a.W 5 # 6 A O.$.O.( D t a i q q q > X ; Z P P P L } ^.;X-X-X1X}.O.8 W a.{ a.%.%.a.a.a.a.a.a.a.s.a.a.",
"s.a.a.a.a.a.s.a.a.a.s.s.a.a.a.W $ # 6 J $.0.0.$.X.K K K K H A e < ; ; ; ; ; X c R.~.~.*X,X{.O.8 W a.a.a.%.%.%.a.a.%.a.a.a.s.s.s.",
"a.{ ' a.a.a.a.s.a.a.s.s.a.a.a.W $ + d T -.-.r.r.;.@.X.X.o.X.F v x 0 0 9 9 < ; ; c B m C.=X&X#.8 W a.a.a.a.a.a.a.a.a.%.a.a.a.a.a.",
"a.%.' ' a.a.a.a.a.a.s.a.a.a.a.R % + l T -.-.F.F.r.;.$.r.W.L.) b n n n n B c > ; ; O O G ).).I 7 W a.a.a.a.a.a.a.a.a.%.a.a.a.a.a.",
"a.a.a.%.a.a.a.a.a.a.a.a.a.a.a.W $ + l Y -.S.F.F.F.r.r.W.9X6X6.v v n ) ] ) K a q w q q i k d , 7 W a.a.a.a.a.a.a.a.a.a.%.%.a.a.a.",
"a.a.a.a.a.a.a.a.a.a.a.a.a.a.a.W $ + u Y -.S.F.F.F.t.u.XXjXuXZ.0 0 N ) 1.*.#.K J K K D w $ o o 5 W s.a.a.a.a.a.a.a.a.a.a.a.a.a.a.",
"a.a.a.a.' ' ' ' a.a.%.a.a.a.s.W $ + s Y =.:.t.D.u.u.e.oXgXuXA.0 e D O.*.0.:.O. .#.#.O.J p , o 4 W s.a.a.a.a.a.a.%.%.a.a.a.a.a.a.",
"a.a.a.a.{ ' ' ' a.a.a.a.a.a.s.W $ + s Y @.;.y.u.e.e.e.`.gXrXK.e a G  .;.y.y.*.#.*.V.T.I.| 6 @ $ W a.a.a.a.a.a.a.a.a.a.a.a.a.a.a.",
"a.a.a.a.a.a.a.{ a.a.a.a.a.a.a.W $ # i I #.:.w.e.e.6.6._.fXrXK.j k Y ..>.G.V.w.*.*.T.8X8XF.6 o $ W a.a.a.a.a.a.a.a.a.s.s.a.a.a.a.",
"a.a.a.s.s.a.a.a.a.a.a.a.a.a.a.W $ # i J O.*.w.e.e.6.6._.fXrXK.j k Y =.:.u.V.B.5.*.).hXdXI.6 o $ W a.a.' a.a.s.s.a.a.s.s.a.a.a.%.",
"a.a.a.s.s.s.s.s.s.s.a.a.a.a.a.W $ o p J X.$.w.e.e.e.e._.gXyXJ.a k Y ..;.w.6.6.6.6.oXhXaXH.> o $ W a.a.a.a.a.a.a.a.a.a.a.a.%.%.%.",
"a.a.a.a.s.s.s.s.s.s.a.a.a.a.a.W $ o p J  .$.w.u.V.e.e._.gXyXJ.a k Y ..$.3.2.2.2.6.oXhXiXJ.2 o $ W a.a.a.a.a.a.a.s.s.a.a.a.a.%.%.",
"a.a.a.a.a.a.{ { { { %.%.a.a.a.W $ # p J  .$.e.A.u.e.3.).sXrXK.a f Y @.0.6.6.2.2.6.`.hXiXP.q O : W a.a.%.%.a.s.g.h.h.a.a.a.a.a.a.",
"a.a.a.a.a.%.%.' { a.s.a.a.a.a.R $ # p J ^ $.u.A.u.0.0.).sXtXJ.a f I @.0.q.8.8.2.6..XhXiXP.i O : W a.s.g.s.g.h.j.j.h.a.a.%.a.a.a.",
"a.a.a.a.%.%.%.a.s.g.h.h.s.a.a.W $ # p J  .$.u.V.u.q.e.oXhXtXG.e a G @.3.4.8.8.8.i.XXhXiXP.2 X $ W g.j.j.j.j.N.N.j.g.a.a.a.a.a.a.",
"a.a.%.a.s.s.s.g.h.z.z.h.s.a.a.W $ # p J  .$.w.u.u.e.u.XXhXyXG.e a G X.$.4.6.8.8.i.XXhXiXP.2 X % W g.j.z.j.j.N.z.h.a.a.a.a.a.a.a.",
"%.%.%.s.z.z.l.z.N.N.z.g.s.a.a.W $ # p J X.$.w.e.u.e.w..XhXaXJ.e t S ( +.4.6.8.4.q..XhXaXU.i O $ W s.g.g.g.g.g.g.a.a.a.a.a.a.a.a.",
"a.a.%.s.z.z.l.z.x.x.h.s.a.a.a.W $ # p J O.u.W.W.J.0.0..XhXaXK.m t D / e.Q.Q.Z.4.q.!.hXaXU.s O $ W s.s.s.a.a.a.%.a.a.a.a.s.s.a.a.",
"s.s.a.a.s.s.s.s.g.g.a.{ a.a.a.W $ o 6 G #.W.9X9XW.3.0.XXhXtXK.e r N ) E.9X0XQ.0.0..XhXsXU.y o $ W s.s.a.a.%.%.%.a.a.a.a.s.s.s.a.",
"s.s.a.a.a.%.%.%.%.%.' { a.a.a.W $ o 6 G X.L.6X0X$X_..X$XeX5Xe.0 v N / Z.6X0X$XoX|.$XeX7XF.y o $ W s.a.a.a.%.a.a.%.' a.a.a.s.a.a.",
"a.a.a.{ a.a.a.a.%.a.a.a.a.s.a.W $ O i G S ( 0.).9XgXgXeX$XL.( v b b N / e.oX0XhXjXeX@XI. .6 @ $ W a.a.a.a.a.a.a.' ' a.a.a.a.a.a.",
"a.a.a.{ a.a.a.a.a.a.a.s.s.s.s.W $ O p S m 0 0 3.5XuXuX5XL./ M v b b r 0 r w.5XsXsX6XK.^ k 6 @ $ W a.a.a.a.a.a.a.{ a.a.a.a.a.a.a.",
"a.a.a.a.%.a.a.a.a.a.a.a.a.s.s.W $ # a S t 0 0 L 6.Z.Z.6./ b b b b b v x v / e.Z.Z.e.) D j 6 # $ W a.{ a.a.a.a.a.a.a.a.a.{ { ' a.",
"a.a.{ { a.%.a.a.a.a.a.a.a.s.s.W $ O i S S F B M v x x x v b b b b b n B B M m x x v v m A i O $ W a.a.a.a.a.a.a.a.a.a.a.a.a.{ a.",
"a.a.s.s.a.a.a.a.a.a.a.a.a.a.a.W $ o q J +.$.) F b x v b B B b v b V ) [ ) L M x 0 0 v m G s o $ R a.{ ' a.a.a.a.%.%.%.a.a.a.a.a.",
"a.a.s.s.a.a.a.a.a.a.a.a.a.a.a.W $ o q K $.0.3.) F M B V L L M v b V [ 1.,.o.P F M m B S G s O $ W a.a.a.a.a.a.a.%.%.%.a.a.a.a.a.",
"a.a.a.a.a.a.a.a.a.a.a.a.a.{ a.W $ & p U @.$.0.0.o.( ( ( ) ( S m m B ( <.q.r.+.X.o.X.X.U I s & , W a.s.a.s.a.{ a.%.a.a.a.a.a.s.s.",
"a.a.a.a.a.a.a.a.a.a.a.a.a.{ a.W $ & d U X.$.u.u.0.$.$.0.L.K.X.A A S X.$.t.u.9.;.9.u.T.P.=.s & 5 W s.s.s.s.a.a.a.a.a.a.{ { a.s.s.",
"%.' ' a.a.a.a.a.a.a.f.f.a.a.a.W $ o s Y @.;.u.D.u.t.0.W.9X7Xy.a A K X.0.D.D.u.r.0.W.8X8XF.s & $ W s.s.s.a.a.a.{ a.a.{ { { a.{ a.",
"{ { ' a.a.a.a.a.a.s.f.k.f.s.s.W $ o y I @.:.y.D.D.u.u.OXlXaXP.e j K @.0.u.D.D.u.r. XlXdXY.s @ $ W s.s.a.a.a.d.d.a.a.d.d.d.d.a.a.",
"a.a.a.a.' ' a.a.a.s.f.m.M.M.m.! 4 # y I @.:.r.u.u.u.u.XXhXaXI.e e D O.:.w.u.V.V.y.OXlXdXU.p @ 4 W a.a.a.d.d.d.d.a.d.c.n.n.c.d.{ ",
"a.a.a.a.{ { a.a.a.a.f.m.M.M.m.! 4 # s I @.:.r.y.y.y.y.oXhXaXI.t e D O.*.w.w.V.V.y.OXkXaXU.y % 4 W a.a.a.d.d.v.c.d.d.n.b.b.c.d.{ ",
"a.a.a.a.a.a.a.a.a.a.s.f.m.m.f.W $ + s Y @.;.y.u.u.y.0.|.dXaXK.t t D ^ &.w.B.B.w.w. XkXaXH.6 % 4 W a.a.a.a.d.n.b.c.c.v.v.d.d.a.a.",
"a.a.a.a.a.a.s.a.a.a.a.s.f.f.s.R % + d Y @.;.y.u.u.w.w.).dXyXG.t t D ^ &.5.B.5.5.w. XkXaXH.6 # 4 W a.a.a.{ d.c.n.c.c.c.f.d.a.a.a.",
"a.a.%.a.a.s.s.s.a.a.a.a.a.a.a.W $ o s I ..;.y.u.u.e.w..XdXyXV.0 t D / ] 5.2.2.5.w.OXlXaXH.7 # 4 W a.a.a.a.a.s.d.s.s.s.s.a.a.a.a.",
"a.a.a.a.a.a.s.s.a.a.a.a.a.a.a.W $ o y J ..:.y.u.u.e.e.oXgXyXA.0 t D / &.1.2.2.6.e.OXhXaXI.8 @ 4 W a.a.a.a.a.s.a.a.a.s.a.a.%.a.a.",
"%.%.a.a.a.a.a.a.a.a.a.a.a.a.a.W $ # y G X.:.u.u.e.w.e.oXgXyXJ.e t D ) &.1.2.6.e.e.OXlXaXI.8 @ * W a.a.a.a.a.a.a.a.a.a.a.%.%.a.a.",
"%.%.%.%.a.a.a.a.a.a.a.a.a.a.a.W $ # y G  .$.u.u.e.e.e.oXgXyXJ.e t S O.1.1.6.C.e.e.OXkXaXI.7 @ * W a.a.a.a.a.a.a.a.a.a.a.%.a.a.a.",
"a.a.a.%.%.' ' ' a.a.a.a.a.a.a.W $ # i G  .$.q.u.p.e.q..XhXtXJ.e c H X.<.6.e.i.e.t.OXzXpXH.6 o $ W a.a.a.a.a.a.a.a.a.a.%.a.' a.a.",
"a.a.a.a.' ' %.' a.a.a.a.a.a.a.W $ O p J X.$.0.u.p.u.q..XhXtXK.c C H X.<.q.i.i.e.t.+XzXpXH.6 # 4 W a.a.a.a.a.a.a.a.a.a.a.' ' a.a.",
"a.a.a.a.a.a.%.%.a.a.a.a.a.a.a.W $ O p U @.;.0.q.p.p.q..XhXiXK.C C H T <.q.q.e.t.t.+XzXpXP.6 # 4 W a.a.a.a.a.a.a.a.a.a.a.%.a.a.a.",
"s.s.s.s.a.s.s.s.a.{ a.a.a.a.a.W $ O p U @.9.r.e.p.e.q..XhXtXJ.c C H T <.q.q.e.t.t.+XzXpXP.q # 4 W s.s.a.a.a.a.a.a.s.s.a.a.a.a.a.",
"l.l.l.h.g.h.z.z.s.{ { a.{ { a.R $ O y G X.$.u.p.e.q.q.XXhXtXp.e c P o.<.q.i.p.p.u.OXlXpXP.q o $ W g.g.g.h.g.a.a.g.h.h.h.a.' { a.",
"l.l.z.z.h.l.x.z.s.{ a.a.s.g.g.W $ O 6 G X.u.!..XJ.q.q..XhXyXJ.c c P o.p.!.!.J.q.t.OXlXaXP.i o $ W s.g.h.j.j.g.g.j.j.j.g.a.' { a.",
"s.g.l.z.h.h.l.l.s.a.a.g.h.z.z._ $ o y J #.W.9X9XW.3.3._.hXsXL.c c S o.W.9X9XQ.3.0..XhXsXU.i # 4 W a.a.g.z.z.j.j.j.j.g.a.' { a.s.",
"a.s.h.h.g.g.g.g.s.a.a.g.h.z.z.` 5 o i I @.T.7X9X$X.X).$XeX6Xu.A c S ( L.6X9X$X_._.$XeX7XD.i # 4 W a.a.s.j.j.j.h.j.h.s.a.{ a.s.s.",
"a.a.s.s.a.a.a.a.a.a.a.s.s.h.z.` 5 # p k J  .r.|.wXjXjXeX@XK.X.t m m F ) e._.0XgXgXeX$XI.@.p @ $ W a.a.a.s.g.s.s.g.s.s.a.a.s.s.s.",
"a.a.a.a.%.%.%.%.a.a.a.a.a.s.h._ 4 o 1 y y 6 > ;.4XdXdX7XI.K A t m m m m m w.5XsXsX6XK. .J p @ * W a.a.a.a.%.a.a.a.s.s.s.s.a.a.s.",
"%.a.a.a.a.a.a.a.a.a.a.a.a.s.g.Q $ . o o # O o y >.U.I.F. .G G k j t A A A U y.I.I.V.^ k k s & * W a.a.a.%.a.%.%.{ a.a.a.a.a.a.a.",
"%.a.a.a.a.a.a.a.a.a.a.a.a.s.s._ 8 * $ $ $ % o o , y 6 6 y y p p q q q q i i q w j j j j k d @ * W a.a.a.%.%.%.%.{ { a.a.a.a.a.a.",
"%.%.a.a.a.a.a.a.a.a.%.%.a.a.a.` Q W W W W g @   o o o o o o @ @ # O O O O O o # p k J I z u + $ W a.a.a.a.a.a.%.a.{ a.a.a.a.a.a.",
"' %.a.a.a.a.a.a.a.a.%.%.%.%.a.a.a.a.a.s.s.Q 7 % % * * $ $ $ $ $ $ $ $ $ $ % . o , p d d l 1 + $ W a.a.a.a.a.a.a.{ ' a.a.a.a.a.a.",
"' a.a.a.a.a.a.a.a.a.a.%.a.a.a.a.a.a.a.s.s.a.Q W W W W W W W W W W W W W W h $ o o o o @ & +   * W s.a.a.a.a.a.a.{ a.a.a.a.a.a.a.",
"%.a.a.a.s.a.a.a.a.a.a.a.a.a.a.a.a.a.a.a.s.s.s.s.s.s.s.s.s.a.a.a.a.a.a.s.s.W 5 o         . .   * W s.a.a.a.a.a.a.a.a.a.a.%.a.a.a."
};
