/* XPM */
static char *_9cd62427d6346dea5d1a7454e9d028eBcJxB9990GWtiafr[] = {
/* columns rows colors chars-per-pixel */
"64 64 189 2 ",
"   c #060300",
".  c #0B0701",
"X  c #060804",
"o  c #0D0B02",
"O  c #0B0B0C",
"+  c #140D01",
"@  c #180E00",
"#  c #100E0B",
"$  c #0E1206",
"%  c #0D1008",
"&  c #141304",
"*  c #1B1202",
"=  c #151807",
"-  c #1C1B05",
";  c #13130C",
":  c #1B150B",
">  c #161B09",
",  c #191E0A",
"<  c #101112",
"1  c #151618",
"2  c #1C1B1A",
"3  c #241601",
"4  c #291701",
"5  c #231B03",
"6  c #2C1C03",
"7  c #221708",
"8  c #231B09",
"9  c #281C0A",
"0  c #321D01",
"q  c #241D12",
"w  c #1C230B",
"e  c #1F280D",
"r  c #172013",
"t  c #252305",
"y  c #2B2501",
"u  c #272807",
"i  c #2B2A06",
"p  c #222309",
"a  c #2F2709",
"s  c #232B0D",
"d  c #2C2E09",
"f  c #362202",
"g  c #3C2301",
"h  c #342D01",
"j  c #3A2B00",
"k  c #36250D",
"l  c #3A260B",
"z  c #3C280D",
"x  c #27300F",
"c  c #2C330E",
"v  c #353206",
"b  c #3C3301",
"n  c #313309",
"m  c #252F10",
"M  c #262119",
"N  c #2B251E",
"B  c #362714",
"V  c #382711",
"C  c #362916",
"Z  c #3B2A13",
"A  c #31271A",
"S  c #362B1B",
"D  c #3A2D1B",
"F  c #253112",
"G  c #2A3511",
"H  c #2E3B13",
"J  c #303711",
"K  c #313D13",
"L  c #3D311C",
"P  c #222120",
"I  c #2D2925",
"U  c #362D21",
"Y  c #382F22",
"T  c #312F2C",
"R  c #373025",
"E  c #3C3223",
"W  c #373129",
"Q  c #3C342B",
"!  c #3D3730",
"~  c #3F3932",
"^  c #422601",
"/  c #452801",
"(  c #4C2C00",
")  c #422E0C",
"_  c #512F00",
"`  c #423600",
"'  c #4A3303",
"]  c #453B02",
"[  c #4A3E01",
"{  c #47350D",
"}  c #4D3009",
"|  c #553101",
" . c #593301",
".. c #5B3B00",
"X. c #54350D",
"o. c #433318",
"O. c #623F01",
"+. c #443724",
"@. c #40362A",
"#. c #443C2E",
"$. c #423C35",
"%. c #354417",
"&. c #3A4715",
"*. c #354619",
"=. c #374819",
"-. c #3A4B19",
";. c #3E511B",
":. c #324D2F",
">. c #4D4102",
",. c #534300",
"<. c #5B4301",
"1. c #564801",
"2. c #5B4B01",
"3. c #53430F",
"4. c #574816",
"5. c #594918",
"6. c #42551C",
"7. c #465B1E",
"8. c #485E1F",
"9. c #654301",
"0. c #634C01",
"q. c #6F4F01",
"w. c #645300",
"e. c #695600",
"r. c #6D5A00",
"t. c #67520A",
"y. c #735400",
"u. c #725D00",
"i. c #6C5B10",
"p. c #4B601F",
"a. c #766100",
"s. c #7B6400",
"d. c #7F6800",
"f. c #7C670B",
"g. c #726219",
"h. c #504721",
"j. c #475E22",
"k. c #495F20",
"l. c #5F5121",
"z. c #5B512E",
"x. c #4B6120",
"c. c #4F6822",
"v. c #46612B",
"b. c #49642C",
"n. c #516621",
"m. c #536B23",
"M. c #5C6D23",
"N. c #567125",
"B. c #5C7325",
"V. c #5D7A28",
"C. c #456536",
"Z. c #486733",
"A. c #486836",
"S. c #496A39",
"D. c #637626",
"F. c #687A27",
"G. c #607F2A",
"H. c #476C43",
"J. c #466E48",
"K. c #826600",
"L. c #826B00",
"P. c #846C00",
"I. c #826D0B",
"U. c #897100",
"Y. c #8C7300",
"T. c #917700",
"R. c #937900",
"E. c #957A00",
"W. c #997E00",
"Q. c #63832B",
"!. c #9D8100",
"~. c #A28500",
"^. c #A38600",
"/. c #A68800",
"(. c #AC8C00",
"). c #B49300",
"_. c #B99700",
"`. c #BD9A00",
"'. c #C19D00",
"]. c #C5A100",
"[. c #CAA500",
"{. c #CEA800",
"}. c #D3AC00",
"|. c #D7B000",
" X c #DBB300",
".X c #E0B700",
"XX c #E3B900",
"oX c #EABF00",
"OX c #EBC000",
/* pixels */
"c.x.x.c.c.x.x.x.x.8.6.6.6.%.p w K ;.6.%.s - H 6.x.c.x.x.x.x.x.x.x.k.6.6.6.6.6.k.x.x.x.x.x.x.x.x.x.x.x.x.x.x.x.x.x.x.x.x.x.x.x.x.",
"c.c.x.c.c.x.x.x.k.6.%.G G c v v c G G c v v n K ;.8.x.x.x.x.x.x.x.6.-.H G H -.6.x.x.x.x.x.x.x.x.x.x.x.x.x.x.x.x.x.x.x.x.x.x.x.x.",
"c.c.x.c.x.x.x.8.6.&.s - - h 1.2.b - - i ,.2.b u K ;.6.6.7.x.8.6.6.-.H w - w G -.7.k.x.x.x.x.x.x.x.x.x.x.x.b.Z.b.x.x.b.b.x.x.x.x.",
"c.x.x.x.k.x.k.6.%.c v b b ,.u.a.1.b b >.r.s.2.b c H H H -.6.-.H G G n b b b n H -.6.c.n.x.x.x.x.x.x.x.x.x.S.J.H.b.Z.H.A.x.x.x.x.",
"x.x.x.x.x.8.6.%.s h 1.u.a.d.Y.Y.d.a.a.s.P.Y.d.e.b p - w K -.H w - p ] r.s.r.[ i H 6.m.N.x.x.x.x.x.x.x.x.x.b.S.Z.b.H.H.x.x.x.x.x.",
"x.x.x.x.8.6.*.c v ,.a.Y.Y.R.!.!.E.Y.Y.Y.Y.Y.Y.d.1.` b v n c n b b ] w.P.Y.P.e.] n &.8.n.x.x.p.p.x.c.c.x.x.c.c.x.x.A.A.x.x.x.x.x.",
"x.x.x.x.7.=.F i 1.s.P.Y.T.!.).).~.R.Y.Y.Y.T.R.Y.L.s.a.e.b i ] r.a.s.L.Y.R.T.P.r.[ i K -.6.6.6.k.x.x.c.c.x.c.c.x.x.x.x.x.x.x.x.x.",
"x.x.x.x.7.*.w y w.Y.Y.R.!.(.`.'.).~.E.T.W.~./././.~.W.L.2.[ w.P.Y.T.W.~./.~.W.Y.e.] n G H H -.6.x.x.x.x.x.x.x.x.x.x.x.x.x.x.x.x.",
"c.c.x.8.6.%.w h e.Y.R.!.).'.].[.'._.~.!.(.`.'.'.'.`./.T.L.d.P.Y.T.W./.`.'.`./.E.P.r.[ t - w G -.6.6.7.k.x.x.x.x.x.x.x.x.k.x.x.k.",
"c.c.k.6.%.c v ,.a.T.~.(.`.[.[.[.[.'.).(.`.[.}.}.}.]._./.~././.~.~./._.].[.].`./.W.Y.e.] h h n c H H =.6.x.x.x.x.x.x.x.x.x.x.c.x.",
"c.c.7.*.s i 1.s.P.W.).'.].[.[.[.[.[.].'.].{. X X}.[.].'.'.'.'.`.'.'.].[.{.[.].`.(.E.P.s.a.r.>.u - - x -.7.x.x.x.x.x.x.x.k.x.c.c.",
"x.x.6.%.> y e.Y.T.!._.[.[.{.}.}.}.}.}.[.[.{.}. X}.[.[.[.[.[.[.[.}.}.|.|.|.}.}.[._./.~.~.!.Y.e.] h h v H -.6.k.x.x.x.x.x.k.x.c.c.",
"k.x.6.%.w y w.P.Y.!._.].[.}. X.XXX X}.[.[.[.[.[.[.[.[.[.[.].[.{. X.X.X.X.X.X X{.].'.'.`.(.E.P.s.u.r.>.i x -.6.k.x.x.x.x.x.x.c.c.",
"x.x.8.-.G c ] w.d.E./._.].}..XoXOXXX}.[.[.].`._.'.[.[.].`._.`.[.}. X X X.X X}.{.[.[.[.].`.(.~.~.!.Y.r.] v K -.6.k.x.x.x.x.x.x.x.",
"x.x.k.6.-.K i ` r.Y.E.~.`.}..XoXoX.X}.[.].`./.~.).].[.'.(.~.).].[.}.{.{.{.{.[.[.].].[.[.].'.`.`.(.E.P.u.>.t s -.8.x.x.x.x.x.x.x.",
"x.x.8.6.%.c v >.u.Y.Y.W._.}..XoXXX X}.].`.(.W.E.~.)._.).!.E.~.).'.].`._.)._._._._._.`.].[.[.'._.~.E.T.P.1.5 w =.8.x.x.x.x.x.x.x.",
"x.x.7.=.s i 1.a.P.Y.Y.!._.}. X.X X}.[.`./.W.T.Y.Y.R.R.T.Y.Y.Y.!.).`.).!.E.R.R.R.E.!.(.'.[.]._.~.E.Y.Y.L.1.t e -.8.k.x.x.x.x.x.x.",
"x.x.6.%.> y e.Y.Y.R.!.(.`.{. X X}.].`.(.W.Y.Y.P.r.2.1.1.1.2.u.T.(.`.(.Y.u.2.1.2.u.Y.!.).`.].`./.W.Y.s.2.] d H 6.k.x.x.x.c.x.x.x.",
"x.x.7.%.w y w.P.Y.W.(.`.].[.{.}.[.'.(.W.T.Y.Y.a.[ 6 - - - y 1.Y.(.`.(.P.1.y * y >.s.T.W.(.`.].`.(.T.e.b d K 6.x.x.x.x.c.c.x.x.x.",
"x.x.x.;.G d >.e.L.!.`.[.}.}.{.[.[.`.~.T.Y.P.s.0.j * + + + 3 ,.P.~.(.~.P.,.3 o * j 0.d.Y.!.).`.]._.E.r.] v K -.7.x.x.c.c.c.x.x.x.",
"x.x.x.8.6.K i b r.W._.{. X X}.[.].`.~.Y.Y.K.0.' f 6 4 4 4 f 2.L.E.W.E.L.<.f 3 6 f ' 0.d.Y.W.(.`.).E.L.e.] u F ;.x.x.c.c.x.x.x.x.",
"x.x.x.x.8.%.w y w.E.(.'.}. X}.].`.(.W.Y.Y.d.4.o.C B C C D o.4.i.I.U.I.g.4.Z B C D L { 2.u.Y.!.(./.E.d.w.b * w -.k.c.x.x.x.x.x.x.",
"x.x.x.x.7.%.w y w.Y.W./.'.{.{.'./.W.T.Y.Y.f.l.$.Q W Q ~ $.$.#.h.i.f.g.z.#.Q Q Q $.~ S a [ a.T.W.E.P.w.h * o w -.n.B.c.x.x.x.x.x.",
"x.x.x.x.8.-.G d >.e.L.!._.[.[.`.~.Y.Y.P.s.t.5.#.Q U R Q #.$.Q L 3.t.5.#.Q U R Q #.Q N : f 1.u.P.d.w.b & o > G 7.D.D.c.x.x.x.x.x.",
"x.x.x.x.k.6.-.K i b r.W._.[.[.`.~.Y.Y.d.0.' ) Z V k z V Z V V z ) ' ) Z V k z V Z V k 6 3 y [ r.w.h & . w %.6.B.F.B.x.x.x.x.x.x.",
"x.x.x.x.c.n.x.%.w y w.E.(.`.].`.~.T.Y.d.<.^ g ^ g g ^ ^ g g ^ ^ g g g ^ g g g ^ ^ g ^ g 3 + t [ ` 3 + + p %.6.M.D.n.x.x.x.x.x.x.",
"x.x.x.c.V.Q.V.-.s y 0.Y.W./.`._.~.T.Y.s.<.( ( ( ( / ( ( ( / ( ( ( / ( ( ( / ( ( ( / ( ( 0 o o - 6 0 0 0 6 p G ;.8.x.x.x.x.c.x.x.",
"x.x.x.x.n.G.V.6.K n >.r.L.E./.(.!.Y.K.y...( _ | _ ( | | _ ( _  ._ ( _  ._ ( _  ._ ( _ _ 0 + X # 9 ^ ( ( g 3 8 G -.6.x.x.x.c.c.x.",
"c.c.c.x.x.c.c.6.;.K i b e.Y.W.W.T.K.y.9.| ( | | _ ( | | _ ( | | _ ( _ | _ ( _ | | ( _ | f + O 2 C }  .| ( g 6 - F -.7.k.x.c.c.c.",
"c.c.x.x.x.x.x.k.6.%.w 6 ,.s.Y.Y.K.y.9.| _ ( | | _ ( _ | _ ( _ | _ ( _ | _ ( _ | _ ( _ _ g 3 : M C }  . . .( g 3 - G -.6.x.x.c.c.",
"x.x.x.x.x.x.x.x.8.%.> * ' q.K.K.y.9. .( _ | _ ( | | _ ( _ | _ ( _ | _ ( _ | _ ( _ | | ( ( ^ 6 : 8 ^ _  . . .( g 6 - x -.7.k.x.x.",
"x.x.x.x.x.x.x.x.7.%.> * ^ O.y.y.9. .( ( | | ( ( | | _ ( | | _ ( _ | _ ( _ | _ ( _ | | ( _ _ f + + 4 ^ _  . . .( g 3 5 G -.6.k.x.",
"k.k.k.k.x.x.x.x.7.%.> * g  .......| ( ( | | ( ( |  ._ ( |  ._ ( _  ._ ( _  ._ ( _  .| ( _ | g + X + 6 ^ _  . . .( g 6 - m -.8.x.",
"k.k.x.x.x.x.x.x.7.%.> * g | _ ( | | ( ( | | ( ( |  ._ ( |  ._ ( _  ._ ( _  ._ ( _  .| ( _ | g + o = 5 6 ^ (  . .| ( 0 & > %.8.x.",
"x.x.c.c.c.x.x.x.7.%.> * g | ( ( | | ( ( | | ( ( | | _ ( | | _ ( _ | _ ( _ | _ ( _ | | ( _ | f & > G s - 6 ^ _  .| ( 0 + > %.x.x.",
"x.c.c.c.x.x.x.x.7.%.> * g _ _ ( | | _ ( | | _ ( | | _ ( _ | _ ( _ | _ ( _ | _ ( _ | _ ( | ( 0 & e *.H = * 0 (  .| ( 0 + > %.x.c.",
"x.c.c.x.x.x.x.x.7.%.> + 0 ( | | _ _ | | _ ( | | _ ( _ | _ ( _ | _ ( _ | _ ( _ | _ ( _ | | ( 6 + e -.K = @ 0 (  .| ( 0 + > %.8.c.",
"x.x.x.x.x.x.x.x.7.%.> + 0 ( | | ( ( | | ( ( | | _ ( | | _ ( _ | _ ( _ | _ ( _ | | ( _ | | / 4 + s -.K = @ 0 (  .| ( 0 + > %.8.c.",
"x.k.k.x.x.x.x.x.7.*.> + 0 ( | | ( ( | | ( ( | | _ ( |  ._ ( |  ._ ( _  ._ ( _  .| ( _  .| / 4 + s -.K = @ 0 (  .| ( 0 + > %.7.x.",
"x.k.x.x.x.x.x.x.7.*.w + 0 ( | | ( ( | | ( ( | | _ ( |  ._ ( |  ._ ( _  ._ ( _  .| ( _  .| / 4 + s -.H = @ 0 (  .| ( 0 + > *.j.x.",
"x.x.x.x.x.x.x.x.7.*.w & 0 ( | | ( ( | | ( ( |  ._ ( | | _ ( |  ._ ( _  ._ ( _  .| ( ( | | / 6 + e -.H = @ 0 (  .| ( 0 + r :.C.x.",
"x.x.x.x.k.x.x.x.7.%.> + 0 ( | | ( ( | | ( ( | | _ ( |  .( ( |  ._ ( _  ._ ( _  .| ( ( | | / 6 + e -.H = @ 0 (  .| ( 0 + r :.v.x.",
"x.x.x.x.x.x.x.x.7.%.> + 0 ( | | ( ( | | ( ( | | _ ( |  ._ ( |  ._ ( _  ._ ( _  .| ( _ | | / 4 + e -.H = @ 0 (  .| ( 0 + r =.j.x.",
"x.x.x.x.x.c.c.x.8.=.w + 0 ( | | ( ( | | ( ( | | _ ( | | ( ( |  ._ ( _  ._ ( _  .| ( _  .| / 4 + e -.H = @ 0 (  .| ( 0 + , *.8.x.",
"x.x.x.x.x.c.c.c.8.=.w + 0 ( | | ( ( | | ( ( | | _ ( | | _ ( |  ._ ( _  ._ ( _  .| ( _  .| / 4 + e -.H = @ 0 (  .| ( 0 + > %.7.x.",
"x.x.x.x.x.x.c.c.8.%.> + 0 ( | | _ ( | | _ ( | | _ ( | | _ ( _ | _ ( _ | _ ( _ | _ ( _ | | ( 6 + e -.K = @ 0 (  .| ( 0 + > %.7.x.",
"x.x.x.x.x.x.x.x.8.%.> * g _ _ _ | | _ _ _ | _ _ _ | _ _ _ | _ _ _ | _ _ _ | _ _ _ | _ _ | ( 0 & s -.K = @ 0 (  .| ( 0 + > %.7.x.",
"x.x.x.x.x.x.x.x.7.%.> * g | _ ( | | ( ( | | ( ( | | _ ( | | _ ( _ | _ ( _ | _ ( _ | | ( _ _ f & > H G - 3 g _  .| ( 0 + > %.7.x.",
"x.x.x.x.x.x.x.x.7.%.> * g | ( ( | | ( ( | | ( ( |  ._ ( |  ._ ( _  ._ ( _  ._ ( _  .| ( _ | g + o > 8 6 g (  . .| ( 0 + > %.7.x.",
"x.x.x.x.x.x.x.x.7.%.> * g | ( ( | | _ ( | | ( ( |  ._ ( |  ._ ( _  ._ ( _  ._ ( _  .| ( _ | g + X + 3 g (  . . .( ^ 6 - s -.8.x.",
"x.x.x.x.x.x.x.x.7.%.> * g | ( ( | | _ ( | | ( ( | | _ ( |  ._ ( _  ._ ( _  ._ ( _ | | ( _ | g + o 3 g (  . . ._ g 6 5 x %.6.k.x.",
"x.x.x.x.x.x.x.x.8.-.s 5 f ( ( ( | | _ ( | | _ ( | | _ ( _ | _ ( _ | _ ( _ | _ ( _ | | ( ( / 0 : 7 g (  . . ._ ^ 6 - s -.6.k.x.x.",
"n.N.c.x.x.n.V.B.x.6.%.x t 0 / | _ _ _ | _ _ _ | _ _ _ | _ _ _ | _ _ _ | _ _ _ | _ _ | _ ^ 6 q N S }  . . ._ g 6 5 x -.n.x.k.k.x.",
"m.Q.V.B.n.V.Q.N.x.k.7.%.w * g | _ ( | | ( ( | | _ ( | | _ ( _ | _ ( _ | _ ( _ | | ( _ _ f @ 2 T +.X. . .( ^ 6 - s 6.M.D.x.k.k.x.",
"c.N.Q.G.m.Q.Q.n.x.c.x.-.w * g | _ ( | | ( ( |  ._ ( |  ._ ( _  ._ ( _  ._ ( _  .| ( _ | 0 + 1 T +.} _ ( g 6 t J -.M.D.m.x.k.x.x.",
"x.x.m.m.c.m.N.c.x.x.k.=.w * g ( ( ( ( _ ( ( ( _ ( ( ( _ ( ( ( _ ( ( ( _ ( ( ( _ ( ( ( ( 0 + < P A l g g 6 5 J 7.p.m.m.x.x.x.x.c.",
"x.x.x.x.x.x.x.x.x.x.8.*.> + 6 ^ ^ ^ ^ / ^ ^ ^ / ^ ^ ^ / ^ ^ ^ / ^ ^ ^ / ^ ^ ^ / ^ ^ ^ ^ 6 o O ; : * * * 5 x -.8.x.c.c.c.x.x.c.c.",
"x.x.x.x.x.x.x.x.x.x.8.-.s = 3 0 l z l l l z z z l l l z z z l l l z z z z l l l z z l 6 * . X % ; = & = s -.6.k.x.x.c.c.c.x.c.c.",
"x.x.x.x.x.x.x.x.x.x.k.6.=.x - 8 S E E U Y E @.Q E U Y E Q Q R U Y E Q Q R U U R @.Q A : . X = s G G G H %.6.k.x.x.x.x.c.c.x.x.x.",
"x.x.x.x.k.x.k.x.x.x.x.k.6.%.w ; I ~ Q W Q ~ $.$.Q W Q ~ $.$.Q W Q ~ $.$.! W Q ~ $.$.P # X $ s -.6.6.6.6.6.8.x.x.x.x.x.x.x.x.x.x.",
"x.x.x.x.x.x.x.x.x.x.x.x.8.-.w ; M D D S D L E E D S D D E E D S D D E E D S S D E D q o = m -.6.x.x.x.x.x.x.x.x.x.x.x.x.x.x.x.x.",
"x.x.x.x.x.x.x.x.x.x.x.x.8.-.s = 7 6 0 6 6 6 0 6 6 6 6 6 0 0 6 6 6 6 0 0 6 6 6 6 0 6 - = s -.6.k.x.x.x.x.x.x.x.x.k.x.x.x.x.x.x.x.",
"x.x.x.x.x.x.x.x.x.x.x.x.k.6.%.s - * @ @ @ @ @ @ @ @ @ @ @ @ @ @ @ @ @ @ @ @ @ @ @ * - G -.7.x.x.x.c.x.x.x.x.x.x.x.x.x.x.x.x.x.x.",
"x.x.x.x.c.c.x.x.x.x.x.x.x.8.6.%.w .                                               o s -.x.c.x.x.c.c.x.x.x.x.x.x.x.x.x.x.x.x.x.x."
};
