/* XPM */
static char *result[] = {
/* columns rows colors chars-per-pixel */
"64 64 248 2 ",
"   c #0A0406",
".  c #150D05",
"X  c #180807",
"o  c #150E0A",
"O  c #0E150C",
"+  c #161407",
"@  c #1A1106",
"#  c #1B1B07",
"$  c #17160A",
"%  c #1D1D09",
"&  c #180416",
"*  c #1A1817",
"=  c #271D09",
"-  c #2A0710",
";  c #281918",
":  c #1B2419",
">  c #24250C",
",  c #3A2C08",
"<  c #3E2E0B",
"1  c #2E350E",
"2  c #2D2412",
"3  c #292417",
"4  c #312614",
"5  c #332619",
"6  c #332A1B",
"7  c #3D3319",
"8  c #180025",
"9  c #29082A",
"0  c #2A1823",
"q  c #371B29",
"w  c #3C0A36",
"e  c #2B1337",
"r  c #361833",
"t  c #1F2423",
"y  c #2A2825",
"u  c #362626",
"i  c #3B3528",
"p  c #332934",
"a  c #383936",
"s  c #4D141A",
"d  c #41310D",
"f  c #423412",
"g  c #493A14",
"h  c #483B16",
"j  c #41351D",
"k  c #44381E",
"l  c #451828",
"z  c #540E37",
"x  c #451938",
"c  c #6E0637",
"v  c #452829",
"b  c #453A23",
"n  c #473C26",
"m  c #54342D",
"M  c #472A36",
"N  c #59273A",
"B  c #483939",
"V  c #553637",
"C  c #723333",
"Z  c #394917",
"A  c #3B4A18",
"S  c #3F511B",
"D  c #34472D",
"F  c #47461B",
"G  c #53441C",
"H  c #45591E",
"J  c #4A601F",
"K  c #494826",
"L  c #514325",
"P  c #52452A",
"I  c #584B28",
"U  c #5B4D2C",
"Y  c #4A5727",
"T  c #4A5E21",
"R  c #55572C",
"E  c #4A4639",
"W  c #5C4E32",
"Q  c #564738",
"!  c #4D573C",
"~  c #5E5131",
"^  c #565936",
"/  c #63542C",
"(  c #67483D",
")  c #645534",
"_  c #675835",
"`  c #6A5A35",
"'  c #665839",
"]  c #6C5D3A",
"[  c #4B6121",
"{  c #4D6824",
"}  c #49642B",
"|  c #4B6B2A",
" . c #516622",
".. c #546A23",
"X. c #596D24",
"o. c #52642A",
"O. c #567125",
"+. c #5A7326",
"@. c #5B7529",
"#. c #486837",
"$. c #5B6A31",
"%. c #4B7433",
"&. c #617527",
"*. c #6A6538",
"=. c #71623D",
"-. c #3B1349",
";. c #3B364E",
":. c #3F1169",
">. c #530B4E",
",. c #481648",
"<. c #471956",
"1. c #6F084C",
"2. c #4A2842",
"3. c #4C3B44",
"4. c #473B48",
"5. c #573846",
"6. c #532F51",
"7. c #573856",
"8. c #6B3945",
"9. c #6E3251",
"0. c #693B58",
"q. c #541171",
"w. c #582A69",
"e. c #5D3868",
"r. c #70346B",
"t. c #3D4247",
"y. c #494647",
"u. c #574749",
"i. c #4B5448",
"p. c #56574A",
"a. c #53534E",
"s. c #4E4B50",
"d. c #544D54",
"f. c #594A58",
"g. c #4F5552",
"h. c #545453",
"j. c #5A5454",
"k. c #555B54",
"l. c #5B5A54",
"z. c #55555A",
"x. c #5B545A",
"c. c #555C5A",
"v. c #5B5C5B",
"b. c #654949",
"n. c #724E46",
"m. c #685847",
"M. c #674B58",
"N. c #764B58",
"B. c #625454",
"V. c #65545A",
"C. c #645D5C",
"Z. c #79595B",
"A. c #55645A",
"S. c #5D625D",
"D. c #6C6548",
"F. c #736848",
"G. c #63635E",
"H. c #736A52",
"J. c #7B6955",
"K. c #797450",
"L. c #5D4462",
"P. c #595963",
"I. c #674A69",
"U. c #784B67",
"Y. c #685867",
"T. c #755869",
"R. c #6F5073",
"E. c #735777",
"W. c #5C6665",
"Q. c #636463",
"!. c #6A6464",
"~. c #666A67",
"^. c #6B6C6B",
"/. c #746868",
"(. c #687468",
"). c #6C726C",
"_. c #76736F",
"`. c #6D6677",
"'. c #776A76",
"]. c #6C7473",
"[. c #6D7A76",
"{. c #747474",
"}. c #7B7476",
"|. c #757B75",
" X c #7B7C76",
".X c #757679",
"XX c #7B747B",
"oX c #747A7A",
"OX c #7B7C7C",
"+X c #8A2950",
"@X c #A1256B",
"#X c #8E5556",
"$X c #897652",
"%X c #AF6958",
"&X c #904F6E",
"*X c #845A67",
"=X c #995A74",
"-X c #AF5172",
";X c #866768",
":X c #936D6F",
">X c #846879",
",X c #857778",
"<X c #83757C",
"1X c #837A7C",
"2X c #A96E73",
"3X c #C96F73",
"4X c #73826D",
"5X c #768476",
"6X c #75817B",
"7X c #7C817D",
"8X c #8E8262",
"9X c #928664",
"0X c #948966",
"qX c #9D926F",
"wX c #82827E",
"eX c #898178",
"rX c #C78474",
"tX c #734E85",
"yX c #7E6680",
"uX c #7B7682",
"iX c #7D7C82",
"pX c #9D3896",
"aX c #C73387",
"sX c #8C518B",
"dX c #B65093",
"fX c #827B83",
"gX c #867887",
"hX c #8A718F",
"jX c #997785",
"kX c #AD6A8C",
"lX c #C25186",
"zX c #D46C8C",
"xX c #7E8384",
"cX c #838383",
"vX c #858585",
"bX c #8F828B",
"nX c #B48C96",
"mX c #B6B093",
"MX c #B9A8A3",
"NX c #C2BB97",
"BX c #C5BBAA",
"VX c #D4CDAC",
"CX c #D5D1AD",
"ZX c #D1CAB0",
"AX c #D5D2B4",
"SX c #DDD8B9",
"DX c #E0DBB6",
"FX c #E1DCBB",
/* pixels */
"{ { J [ [ { H J [ [ T [ H [ [ [ [ [ [ [ [ [ [ [ { J J J H J J J [ H [ [ [ [ T [ J [ T [  .[ { J H J J [ T H [ [ [ [ T T [ [ [ { ",
"{ J { [ { [ J [ [ J [ [ [ [ [ J [ [ [ [ [ [ [ { J { J { { J { J [  .[ [ [ [ [ [ [ J J [ J { [ [ { H [ [ } [ [ [ [ [ [ T T [ [ [ ",
" .J J [ { J J [ J H  .[ [ H J [ [ [ [ [ [ [ [ [ { [ [ [  .[ { J [ [  .[ { { [ [ J [ { [ [ J  .[ [ [ J [ } } } } } } } } [ [ [ [ ",
"{ { [ [ [ [ [ [ [ [ [ [ [ { { H S A Z Z A A A A A A A A A A A A A A A A Z A A A Z Z A A A A A H T [ [ [ } #.} } #.} } T [ [ [ [ ",
"J J J [ [ H [ H [ T [ { { { { H 1 % # # + # # # # # # # # # # # % % $ + # + # # # + % # # # : 1 H [ J [ } } } #.i.#.} [ [ T [ H ",
"J J [ [ J { } [ [ { | %.| { { A %     O . . @ @ @ @ @ @ . @ . @ @ @ . . X . @ @ . + + . + + # > H [ [ J { } } } %.#.} J J [ [ [ ",
"[ [ [ [ J { %.| | | %.%.| { { A #   ; 6 6 3 5 5 2 2 2 4 2 2 4 5 6 4 5 6 6 4 2 2 6 6 2 2 3 3 o > A { { { { [ [ } } } [ [ [ H [ [ ",
"[ J H [ H  .%.%.| | %.%.| { [ Z + O 6 B K n b b f k k k j j k j 7 j b L n n j j n n b 7 i 6 $ > A { J J [ [ [ [ J [ [ [ [ [ [ J ",
"{ [ [ [ [ [ | | | } { } [ [ [ A # o 6 n Q W P K P P L L I L k j f b I U I L P P I P P E K 6 % > A [ [ [ [ [ [ J J [ H [ [ [ [ [ ",
"{ [ [ [ [ [ [ { | [ [ T [ [ [ A # @ 6 n Q W ~ ~ ~ ~ U ' K.J.I f f b I W U / ~ U W ' K.H.P 4 $ > A [ [ J [ [ H [ J [ [ [ [ [ [ [ ",
"[ { [ [ [ [ J { [ [ { [ [ [ [ A # . 5 b L W ' ] _ ) _ $XNXmX/ , f h n U ` =.` ` ) K.NXMXm.2 @ % A [ [ [ J [ [ [ [ [ [ J [ [ [ [ ",
"[ [ [ [ [ [ { [ [ [ [ { [ [ [ A # @ 4 b K W ] ] ` ` ` 0XFXCX=.d f h h I ` =.` ` ) 9XFXSXH.> . # A [ [ [ H [ [ [ [ J J [ { [ { [ ",
"[ J [ T J [ {  .{ J [ { [ [ [ A # @ 2 k I ) ` ` ` ` ` 0XDXCXF.d d g G I ` ` ` ` ' 0XFXSXH.2 @ # A [ [ [ [ [ [ H H [ [ J J [ { J ",
"T [ [ J [ [ J [ J J { [ [ [ [ A = @ 2 h I ) _ ` ` ` ` 9XDXCXF.d d g G / ` ` ` ` ` 0XFXAXH.2 . = A { [ J [ [ J [ [ J [ [ [ [ [ [ ",
"[ H J [ [ [ J [ J J [ [ [ [ [ A # . 4 k n ~ ` ` =.` ` 9XDXVX=., d g G / ` ` ` ` ' 9XSXAXD.2 . # A [ [ [ [ [ S [ [ [ J [ [ J J [ ",
"[ [ J T H [ [ [ J [ J [ J [ [ A # @ 4 h m U ` =.` ` / 9XDXVX=., , d G / ` ` ` ` _ 0XFXAXD.> X # A [ [ [ [ [ [ J [ [ [ J [ [ [ J ",
"[ [ [ [ J [ T J  .[ H [ [ [ { Z # . 4 k L U ' ] ] ` ` 9XFXCX=., d g g G ` =.` _ ' 0XFXAXF.>   # A { [ [ T J [ [ T J [ [ [ [ J [ ",
"[ J J J [ J H [ H [ [ [ [ [ { A # . 6 k L U ) ] ] ] ` 9XDXCXF.< d g G I ` =.` ' ' 0XFXAXH.2 . # A [ [ [ [ [ [ J [ [ J J J [ H [ ",
"T J [ [ [ [ [ [ [ [ [ [ J [ [ F # @ 6 n n W ' ] ] ] ` 9XDXCXF.< d h I / / ` ] ] ) 8XSXAXH.2 . # Z [ [ [ [ [ [ J [ { [ { [ [ [ [ ",
"J [ [ { [ [ [ [ [ [ [ [ [ [ [ A # @ 6 n P W ' ] =.` ` 0XDXCXF.d f h I U ) ` =.] ) 8XSXCXH.2 . # A [ [ [ [ [  .{ [ [ { J J J [ [ ",
"[ J J { { { J { { J { J [ [ [ A # . 4 n P W ) ' ] ] ` :XDXVXF., d f L U ` ` ] ` ' 0XFXAXH.3 . # Z [ [ J [ [ [ [ [ [ J { [ [ [ [ ",
"T [ [ [ { J J J  .[ J J T [ [ Z # + 2 n P W ) m.=.] ` 9XDXVX=.d d f G U ' ] ] ' ] 0XFXAXD.= . # A [ J [ J T [ [  .[  .[ H [ [ J ",
"J [ [ J J J J { J [ T T [ [ [ Z # . 4 k m U ' D.] ] ] 0XDXVXF.d f g h / ] =.] ' ' 0XFXAXD.= + # A [ [ J T H  . .....{ H J T T J ",
"[ H J [ [ J J J [ J {  .T ^ W I K K F I R R H F H R ` :XDXAXF.d f g G U ' =.] ' ' 0XFXAXD.> . # A [ {  .{  .X.X.X.X. .H [ [ J [ ",
"[ J [ T J J J T [  .*.D.m.' u.V v q ; ; 0 2 = # # 1 / 9XSXAXF.d d g G / / =.` ` ` 0XFXAXF.2 . # Z  .X.X.X.X.&.&.X. . .H [ [ J [ ",
"[ [ J [ { O.{ &.` *.F.H.D.b.5.5.p r 9 q ; ; - ; > 4 7 K R F F Z d g G I / ` ` ` ` 0XVXmXH.2 . # Z ..X.+.X.X.&.+...[  .H [ [ J T ",
"[ J [ { @.&.F.J.n.m.D.m.m.u.m.u.u.y.V B B B 3.E u.B > @ % @ = 2 h g G G / / ` / U J.V V m.2 . # A  ... . . .{ {  .[ J [ [ J [ J ",
"[ [ H  .@.=.;X*XN.M.m.m.p.u.p.p.C.l.j.j.l.l.l.l.G.a.y o o $ ; u i K G / 8X9X8X` n.n.8.8.( i X # A J  .J  .H [ T H T [ [  .{ [ [ ",
" .{ [ [ R b.U.*XN.V.B.B.p.^ ! p.p.i.i.p.A.p.k.k.l.i.y.a B y.y.E 6 2 Y K.NXqXF , - C #X&XN v = # A J { J [ T [ T H [ [ [ [ { J [ ",
"{ J [ [ b x I.U.I.Y.B.j.p.p.p.p.p.p.p.k.k.A.k.g.k.h.c.c.h.k.G.a.u = i R &.F 1 = - N =X-X9.N V M Q Y Y H [ [ T [  .J [ [ [ {  .[ ",
"J [ [ [ b q 7.I.V.x.d.a.i.h.j.x.h.h.h.h.g.g.g.g.g.z.g.g.h.c.v.l.y.i ; + O 3 n V - s =XkXkX#XN z r x r E Y T [ [ T J [ [ J [ J J ",
"J J J [ M r 5.Y.x.x.h.z.z.z.x.d.x.k.z.x.h.z.z.P.h.c.z.g.k.l.a.j.j.3.O     3 E m v m kXnXzX2X2.l x ,.,.M 3.! K F H [ H [ [ J T [ ",
"[ [ { ^ 7.f.x.v.d.d.d.z.P.z.a.i.h.p.l.l.j.j.h.h.h.g.h.k.h.h.j.j.l.B o o p i ; 5 V *XqXnXnX2X&X0.7.7.e.7.r 0 y i B E T [ T [ H [ ",
"T [ R >.r.T.j.h.L.z.z.z.z.z.h.k.k.k.l.l.j.h.j.p.g.k.c.k.h.h.j.x.h.4.t 3 y.E u 5 u.#X*X:X2XjX*XM.5.5.s.7.e 0 e r -.4.E H [ [ [ [ ",
"[ [ ^ w 7.Y.v.v.P.L.z.g.h.k.S.S.S.S.l.l.l.j.j.s.h.h.c.k.a.a.a.j.x.d.y.y.a.p.y.Q p.u.v v N.>XZ.b.u u p a ;.y.7.4.6.6.3.E H { [ [ ",
"[ [ o.w 7.V.f.f.x.P.g.g.h.S.W.].~.!.^.!.G.C.j.h.k.k.v.k.h.h.a.j.j.l.h.g.a.l.l.G.j.V u u f.Z.5.v ; o * 0 a t.P.Y.Y.7.x V ^ [ J { ",
"T Y 3.0 3.V.d.P.z.z.d.h.k.~.].[. X.X}.}.}._.Y.v.v.v.W.v.v.v.x.j.h.h.a.g.g.k.k.k.l.C.B.C.Z.y.q ; ; * O   O t t.W.I.I.0.5.N ^ T  .",
"& 8   * y.Y.x.z.z.z.v.Q.!.].|.6XxXiXfXuXfXOX).~.~.~.~.Q.S.l.l.a.l.h.g.g.k.k.A.k.W._.}.,XY.E 0 * y y t O * t ;.P.Y.R.U.N.N.B.l.K ",
"8 &   0 B x.Y.z.S.S.).{..X.XoX7XiXgXfXfXfXfX.XoX{..X|.).!.v.l.h.h.p.h.g.g.A.A.W.].|.OXOX!.x.y.B s.s.t.t.t.t.s.P.Y.E.'.,X;X>XjX7.",
"8 8   * y.x.P.P.W.(.5XcXgXiX XOXiXgXfXuXOXfXfXvXOX7X7X|.^.Q.W.P.v.v.v.A.W.W.W.].[.xXvXiX!.G.C.x.v.P.P.P.P.A.P.P.Y.`.bXgXbX<X>XhX",
"& & & 0 y.Q.P.Q.].[.5X5XuXuX1XcXuXhXuXuXgXvXiXiX7X5XOX X|.7X[.^.!.!.^.).].].[.[.[.uXoXoX{.{.{._.W.W.P.W.S.(./._.iXuXfXfXeX/.m u ",
"Y R & e f.Q.Q.{.iXxX6X[.uXfX1X1XiXgXiXgXvXuXiXiXcX7XOXOXOX7XxXoX!.!.).|..X.XuXuXiXxXoXxXxX1XOX X(.(.W.W.).(._. X<XbXbXgX,XN.q X ",
"[ [ Q w y.G.).|.vXvX5X[.OXgX<X<XgXiXiXxXiXoX X7XwXwX X XoXoXvXuX^.^.^.^.^.].OXxXcXiXOXoXOXcXwX7X4X(.[.[.[.|. XeX1XjXgXjX'.e.e 8 ",
"[ T R ,.7._._.vXgXfX6X6XOXfXfX<XgXgXiXgXOXoX|.|.~.~.{.OXoX{.oX].!.Y.C.P.v.Q.].OXXX}.{.{. X7XwX7X5X5X7XxXcX7X X,X<X>XsXI.R.7.e * ",
"[ [ T z M.Y.>X,XjXgXOX6XOXOXfXiXfXfXiXiX7X7X5XG.a a S.cXxXuXW.W.v.z.P.c.z.z.v.C.C.C././.}.1XOX X5X6XoXiXfXfXfX,X>XR.<.-.-.<.Y S ",
"T T [ b.9.U.>X>X<XgXfX XOXOXfXgXiX1XxX7X7XxX4XA.O : A.cXxXuXP.P.z.z.z.z.z.h.j.u.d.B.C.G._.|.|.OXxXiXiXiXgXyXE.E.e.e.4.E D Y [ [ ",
"[ T [ [ +X>.U.>X<X,X1X1XOXOXiXiXXXOX7XwX5X4X(.i.$ : c.xXxX].W.P.P.z.z.P.z.j.j.u.B.B.B.B.G.^.|.OXxXhXhXhXtXR.w.-.q.s.Y [ T [ [ [ ",
"T [ J J b.z 9.>X<X}.,X,XOXOXOX.XiXOXOX7X[.(.k.a : y W.xXiX[.].P.z.d.d.z.z.j.x.f.B.B.j.B.C._..XfXhXuXtXtXtXr.E E E T J T [ [ [ [ ",
"[ [ [ [ R z 0.*XT.'.uXoXxXOX X XwXOXfX,X^.p.D : a s.{.cXuXiXuX{.Y.f.j.h.z.Y.L.M.M.V.M.x./.XXXXfXyXR.w.:.:.a.R J [ [ J [ H [ [ J ",
"H [ [ J [ B.6.e.7.f.].iXiXoX5X,XeX1X,X/.B.D : : t.Q..XcXiXxXfXXXY.f.Y.v.h.d.s.f.u.B.B.T.XXfXgXhXR.w.e.4.y.R J [ [ H T [ [ [ T [ ",
"J J H [ [ Y u.,.e r P.uXuXxXeXeX_.,X;Xu.6 : D t.p./.'.gXbXbXhXhXT.Y.R.Y.V.B q ; E a.G./.XXhXhXsX<.a.i.Y H T [ H [ J [ J [ [ J [ ",
"{ J { { [ [ R ! 3.;.4.P.`.fXOX_.,X;X;Xu.* O D A.l.G.,X,X>XE.E.E.R.L.e.7.3.p 0 ; D S.C.>X<XgXsXtXx.p.{ [  . .[ [ { J  .[ J [ [ H ",
"O.X.O.O.....+.+.$.! ;.;.P.^.XX<X;X;XZ.b.; * y.v.C.v.T.M.2.2.,.,.-.<.<.-.e r 2.u.x.P.uXgXgXE.e.3.!  . .......[ [ [ X.X... .J [ H ",
"O.O.@.O.O.O.@.+.{ ! ;.e f.`.>X,X;X*Xn.M & & p 4.y.B f.b.x l x 6.5.5.Q b.Z./.R.I.f.Y.`.hXY.e.M E H  . ...X.X. .[ X.X.X...[ T J { ",
"{  .+.O...O.O.O.{ ! 7.-.R.>X;X*XjX;Xm X X X & ; ; 0 r MXqXJ.L 7 f F W $XmXMXMX6.7.Y.uX`.;.B i 1 A [ [  .X.&.X.X.X.X. .[ J J [  .",
"H { ..O.{ { ..{ [ ! M.7.&X:X;X%X2X;Xl X X   X I.ZXZXAXmXH.P k f 7 i P J.mXBXnX,.6.Y.>XT.4.B B > H T T [ X.X.X.X.X... .[ [ [ [ { ",
"[ J {  .J { { [ E u.sX&X=X=X%X%XrX%Xs X X - & J.H.H.H.m.n b b 7 i j n Q m.H.T.>.r.r.&X;X=X2X9.i H [ J {  ...[ {  . .J  .J J  .{ ",
"[ J J H J J H [ 3.3.sXdX-X-X3XrX%X#XG s X 9 2.V 6 4 2 4 2 2 2 5 6 6 3 2 2 6 5.r.r.&X=X#X2X-XlX8.F [ J H J H J J [ [ { [ { J { [ ",
"H [ J [ J [ [ [ ^ 3.5.sX-XzX3X3XC C #XN.z w r.dX8.l @ X o @ . o . + . . . o q M 6.r.=X2XC +X-X&XA [ J [ J J [ T J [ { { [ J H  .",
"[ [ T [ J [ [ H T T b.8.zXlX3X+Xc s +X&Xx >.pXpXaXN q 2 # % # # # # # # @ @ % = B r.kXsXc c aX-XH J [ J T [ J [ J [ J [ [ J J J ",
"[ [ H [ [ J [ [ [ H [ m.+X@X+X1.z >.1.1.>.>.q.N.S Z A Z A A A A Z A A A A A A A Y m.U.+X1.1.@Xn.H J [ J J [ H [ T [ J { [ T J [ ",
"J [ [ [ [ J T J [ [ [ H Q 2.N N N N v V M 5.9.b.^ *.m.m.[ [ [ [ [ [ [ [ [ [ [ { [ J D.m.8.C C ) [ [ [ [ T [ [ [ J J J H J [ [ J ",
"[ J [ J { [ [ J [ [ T [ T [ R Q Q Q m U P Q Q o.{ { $.o.[ [ [ [ [ [ [ [ [ [ [ [ [ { [ o.) ( ] R [ [ J [ [ J J [ [ H J [ T [ [ [ ",
"H T [ [ [ [ [ T [ J [ T [ T [ [ [ J [ [ [  .{ [ [ { [ { [ J T [ T [ [ [ [ [ [ [ [ H {  .[ [ [ [ { [ [ [ J T [ [ [ [ T [ J [ [ [ "
};
