/* XPM */
static char *b1f71eedfda14cf2ff0105a6e97d78e3VXyQoNwSnhzUttcU[] = {
/* columns rows colors chars-per-pixel */
"64 64 240 2 ",
"   c #090308",
".  c #140202",
"X  c #17070A",
"o  c #0F1705",
"O  c #171508",
"+  c #0E0312",
"@  c #160416",
"#  c #141312",
"$  c #191717",
"%  c #290A0B",
"&  c #2F0F0E",
"*  c #221415",
"=  c #2A151D",
"-  c #26181A",
";  c #35181D",
":  c #1D231B",
">  c #262318",
",  c #362717",
"<  c #373A1C",
"1  c #2B1323",
"2  c #2A1727",
"3  c #351729",
"4  c #3C152B",
"5  c #2F1132",
"6  c #3C1533",
"7  c #361638",
"8  c #282726",
"9  c #372626",
"0  c #33262F",
"q  c #373629",
"w  c #373A34",
"e  c #5B0E1C",
"r  c #481A1A",
"t  c #40251E",
"y  c #4D032B",
"u  c #56052B",
"i  c #48172B",
"p  c #581627",
"a  c #450A39",
"s  c #431B34",
"d  c #461839",
"f  c #5A1536",
"g  c #630F2D",
"h  c #46282A",
"j  c #59232D",
"k  c #443A2C",
"l  c #493A2A",
"z  c #56382E",
"x  c #462835",
"c  c #562B37",
"v  c #473C38",
"b  c #573736",
"n  c #702B33",
"m  c #3B4619",
"M  c #3D4B1C",
"N  c #3F4922",
"B  c #434B1C",
"V  c #4A4F1F",
"C  c #46521E",
"Z  c #495E1F",
"A  c #515B1F",
"S  c #4A621F",
"D  c #484526",
"F  c #454A23",
"G  c #4A4C25",
"H  c #4B4B29",
"J  c #514C2A",
"K  c #465122",
"L  c #4C5325",
"P  c #4B5D21",
"I  c #4D5129",
"U  c #525727",
"Y  c #52552A",
"T  c #525A2B",
"R  c #47433C",
"E  c #594638",
"W  c #55533F",
"Q  c #6B4337",
"!  c #4B6121",
"~  c #4D6923",
"^  c #49642B",
"/  c #4B6B2A",
"(  c #516622",
")  c #546B23",
"_  c #596D23",
"`  c #57632C",
"'  c #567125",
"]  c #5B7425",
"[  c #5B7A26",
"{  c #5E7B28",
"}  c #486837",
"|  c #4B7332",
" . c #4C7837",
".. c #617726",
"X. c #67663A",
"o. c #627530",
"O. c #3B0F42",
"+. c #3D2F45",
"@. c #480E44",
"#. c #481446",
"$. c #4B1C42",
"%. c #531947",
"&. c #521156",
"*. c #71134A",
"=. c #4C2846",
"-. c #582948",
";. c #453E43",
":. c #4A3B43",
">. c #553948",
",. c #582D59",
"<. c #4C3353",
"1. c #593956",
"2. c #672448",
"3. c #682C5C",
"4. c #732B51",
"5. c #65385A",
"6. c #723755",
"7. c #5D2762",
"8. c #663C66",
"9. c #793562",
"0. c #3F4244",
"q. c #454344",
"w. c #494745",
"e. c #4B434B",
"r. c #574648",
"t. c #554C4D",
"y. c #4D5449",
"u. c #53544E",
"i. c #5A554D",
"p. c #56594A",
"a. c #584A57",
"s. c #4E5056",
"d. c #545454",
"f. c #5A5453",
"g. c #555953",
"h. c #5B5B55",
"j. c #55545A",
"k. c #5B545B",
"l. c #565A5A",
"z. c #5B5C5C",
"x. c #684A4A",
"c. c #76484F",
"v. c #695445",
"b. c #725946",
"n. c #68485A",
"m. c #645458",
"M. c #625C5A",
"N. c #78565A",
"B. c #5C615C",
"V. c #5B655C",
"C. c #6E6742",
"Z. c #746746",
"A. c #65635E",
"S. c #7C6155",
"D. c #5D4A63",
"F. c #5A5663",
"G. c #5D5B62",
"H. c #6A4A6A",
"J. c #744A67",
"K. c #675767",
"L. c #625C63",
"P. c #77586A",
"I. c #6B4F72",
"U. c #744877",
"Y. c #795B77",
"T. c #5D6362",
"R. c #5F6869",
"E. c #636563",
"W. c #686765",
"Q. c #636A65",
"!. c #636569",
"~. c #6A636B",
"^. c #6A6C6B",
"/. c #78656B",
"(. c #736C6B",
"). c #687465",
"_. c #6B726E",
"`. c #72746B",
"'. c #6E6E72",
"]. c #736E73",
"[. c #7C6976",
"{. c #6D7373",
"}. c #6E7877",
"|. c #757574",
" X c #7B7475",
".X c #747B75",
"XX c #7B7B75",
"oX c #757579",
"OX c #7B747B",
"+X c #747B7A",
"@X c #7C7C7B",
"#X c #81164E",
"$X c #8E3156",
"%X c #A73C6F",
"&X c #8D4557",
"*X c #905151",
"=X c #A35B5C",
"-X c #90655E",
";X c #A06253",
":X c #B6685B",
">X c #924D6F",
",X c #89586D",
"<X c #B85568",
"1X c #AC5172",
"2X c #856567",
"3X c #97666B",
"4X c #846A77",
"5X c #837374",
"6X c #83767C",
"7X c #837A78",
"8X c #827C7C",
"9X c #9D7679",
"0X c #AD756D",
"qX c #A2757A",
"wX c #C44F78",
"eX c #D37273",
"rX c #788176",
"tX c #7B837D",
"yX c #80807F",
"uX c #C7836E",
"iX c #7D6683",
"pX c #7F7181",
"aX c #7D7C82",
"sX c #8A3C84",
"dX c #8F528A",
"fX c #B05786",
"gX c #876986",
"hX c #847484",
"jX c #837C83",
"kX c #847A8A",
"lX c #8A7888",
"zX c #917E81",
"xX c #947892",
"cX c #AB6783",
"vX c #C2768A",
"bX c #7D8382",
"nX c #828282",
"mX c #8B8182",
"MX c #BD878E",
"NX c #C48490",
/* pixels */
"~ ~ ! ! ! ! ! ! ! ! ! ! ! ! ! ! ! ! ! ! ! ! ! ! ~ ! ! ! ! ! P P ! ! ! ! ! ! ! ! ! ! ! ! ! ~ ! ! ! ! ! ! P S ! ! ! ! ! ! ! ! ! ~ ",
"~ ~ ! ! ! ! ! ! ! ! ! ! ! ! ! ! ! ! ! ! ! ! ! ! ! ! ! ! ! ! ! ! ! ! ! ! ! ! ! ! ! ! ! ! ! ! ! ! ! ! ! ! ! ! ! ! ! ! ! ! ! ! ! ~ ",
"~ ~ ! ! ! ! ! ! ! ! ! ! P P ! ! P P ! ! ! ! ! ! ! ! ! ! ! ! ! ! ! ! ! ! ! ! ! P P P ! ! ! ! ! ! ! ! ! ! ^ ^ ^ ^ ^ ^ ^ ! ! ! ! ! ",
"~ ~ ! ! ! ! ! ! ! ! ! ! ! ! ! ! ! P ! ~ ( ( ~ ~ ~ ~ ! ! ! ! ! ! ! ! ! ~ ~ ~ ! ! ! ! ~ ! ! ! ! ! ! ! ! ! ^ } ^ ^ } } ^ ! ! ! ! ! ",
"! ! ! ! ! ! ! Z P ! ~ ~ ~ ~ ~ ~ ! ! ~ ) { { ) ) [ ' ~ P ! ! ~ ~ ! ! ~ ( _ ( ! ! ( _ _ ( S S ! ! ! ! ! ! ^ ^ ^ } } } ^ ! ! ! ! ! ",
"P ! P P ! ! ~ ~ ! ~ / / / ~ ~ ~ ! ! ~ ) { ..' ) { [ ~ P P ! ~ ~ ! ! ~ ( _ _ ( ( _ _ _ ( S S ! ! ! ! ! ! ~ ^ ^ ^ } } ^ S S ! ! ! ",
"P ! ! P ! ~ / | / /  . ./ ~ ! ! ! ! ! ~ ) ' ) ) [ ' ~ P ! ! ! ! ! ! ! ~ _ _ _ _ _ _ ( S S ! ! ! ! ~ ! ! ~ ~ ! ! ^ ^ ! ! ! ! ! P ",
"! ! ! ! Z ~ | | / / | | / ~ ! P ! ! ! ! ~ ( ( ( ) ) ~ ! ! ! ! ! ! ! ! S ( _ _ _ _ ( ~ ! ! ! ! ! ! ! ! ! ! ! ! ! Z Z ! ! ! ! ! ! ",
"~ ! ! ! ! ! / / / / / ~ ! ! ! ! ! ! ! ! ~ ~ ~ ~ ~ ! ! ! ! ! ! ! ! ! ! ! ! ~ ~ ( ~ ~ ~ ~ ~ ! ! ! ! ! ! ! ! ! ! ! Z ! ! ! ! ! ! ! ",
"~ ~ ! ! ! ! ~ ~ ~ ~ ! P ! ! ! ! ! ! ! ! ! ! ~ ! ! ! ! ! ! ! ! ! ! ! ! ! ! ! ! ! ! ! ~ ~ ~ ! ! ! ! ! ! ! ! ! ! ! P P ! ! ! ! ! ! ",
"~ ! ! ! ! ~ ~ ! ! ! ! ! ! ! ! ! ! ! ! ! ! ! ! ! ! P P ! ! ! ! ! ! ! P ! ! ! ! ! ! ! ! ~ ! ! ! ! ! ! ! ! ! ! ! ! ! ! ! ! ! ~ ! ! ",
"! ! ! ! ! ! ~ ! ! ! ~ ~ ! ! ! ! ! ! ! ! ! ! ! ! P P P ! ! ! ! ! P P ! ! ! P ! ! P ! ! ! ! ! ! ! ! ! ! ! ! ! ! ! ! ! ! ! ! ~ ~ ~ ",
"! ! P ! ! ! ! ~ ! ! ~ ~ ! ! P P ! ! ! ! ! ! ! ! ! ! ! ! ! ! ! P ! ! ! ! ! ! ! ! P Z S ! ! ! ! ! ! ! ! ! ! ! P P ! ! ! ! ! ! ! ! ",
"! ! ! ! P ! ! ! ! ! ~ ! ! ! P P ! ! ! ! ! ! ! ! P ! ! ! ~ ~ ! ! ! ! ! ! ! ! ! ! P P ! ! ! P ! ! ! ! ! ! ! ! P P P ! ! ! ! ! ! ! ",
"! ! ! ! P ! ! ! ! ! ! ! ! ! ! P ! ! ! ! ! ! ! ! P ! ! ! ~ ~ ! ! ~ ~ ! P ! ! ! ! ! ! ! ! ! ! P P ! ! P ! ! ! ! P ! ! ! P P ! ! ! ",
"! ! ! ! ! ! ! ! ! ! ! P ! ! ! ! ! ! ! ! ! ! ! ! ! ! P ! ! ~ ! ! ~ ~ ! P P P ! ! ! ! ! ~ ! ! ! ! ! ! ! P ! ! ! ! ! ! ! ! ! ! ! ! ",
"! ! ! ! Z Z Z P ! ! ! ! ! ! ! ! ! ! ~ ~ ! ! ! ! ! ! ! ! ! ! ! ! ! ! ! ! ! ! P ! ! ! ! ! ~ ~ ! ! ! ! ! ! ! ! ! ! P P ! ! ! ! ! ! ",
"! ! ! ! S Z Z Z ! ! ! ! ! ! ! ~ ! ! ~ ~ ! ! ! ! ! ! ! ! ! ! ! ! P ! ! ~ ! ! ! ! ! ! ! ! ~ ~ ! ! ! ! ! ! ! ! ! ! ! ! ! ! ! ! ! ! ",
"! ! ! ! ! ! P P ! ! ! ! ! ! ! ! ! ! ! ! ! S S ! P P ! ! ! ! P P ! ! / / ~ ~ ! ! ~ ~ ! ! ! ! ! ! ! ! ! ! ! ! ! ! ! ! ~ ~ ! ! ! ! ",
"! ! ! ~ ~ ! ! ! ! ! ! ! ! ! ! ! ! ! ! ! ! ! S ! ( ( ~ ! ! ! ! ! ! ~ / / / / ~ ~ / ~ ! ! ! ! ! ! ! ! ! P ! ! ~ ~ ! ! ~ ~ ! ! ! ! ",
"! ! ! ~ ~ ~ ~ ~ ~ ~ ! ! S S S ! ! ! ~ ~ ! ! S ( ] ] _ ( ! ! ! ~ ~ ~ / /  . .| / / ~ ! ! ! ! ! ! ! ! ! ! ! ! ! ! ! ! ! ! ! P P ! ",
"! ! ! ! ~ ~ ~ ~ ~ ~ ! ! S S S ! ! ! ( ( ( ( ( _ ] ] _ ( ~ ! ~ ~ ~ ! ~ /  . .| / / ~ ! ! ! P ! ! ! ! ! ! ! ! ! ! ~ ~ ! ! ! ! P P ",
"! ! ! ! ! ! ! ! ! ! Z Z S S S S ~ ~ ( _ ] ] _ _ _ _ ( ! ! ! ~ ~ ! ! ! ~ / / ~ ~ ~ ~ ! P P ! ! ! P P ! P P ! ~ ( ) ) ! ! ! ! ! ! ",
"P ! ! ! ! P S S ! ! ` ` T T Y I G G F V A A C B B C P ! ! ! ~ ! ! ! ! ! ! ! ! ! ~ ~ ! S P ! ! ! P ! ~ ( ~ ( ) _ _ ) ! ! P ! ! ! ",
"! ! ! ! P Z S S ~ ` X.Z.b.x.>.-.s 4 ; = ; - - * * , C ~ ~ ! ! ! S S ! ! ! ! ! ! ! ! S S S ! P P P ! _ _ _ _ ...._ ( ! ! ! ! ! ! ",
"! ! ! ! ~ ( ` ` ` X.Z.S.N.c.5.-.$.s 3 1 1 1 = = 1 9 < m m m m B Z ! ! ! ! ! ! ! ! P J J P ! ! ! ! ~ _ ] _ _ ..] ) ! ! ! ! ! ! ! ",
"P P P ~ ' o.C.b.v.v.v.v.v.i.r.r.r.r.v v ;.;.;.e.t.v > o O O * , B ! ! ! ! ! ! ! ! J -.-.J S ! ! ! ! ( ( ( ( ( ( ! ! ! ! ! ! ! ! ",
"! ! ! ! ` X.S.N.c.c.v.v.p.W p.p.p.p.u.d.d.j.l.z.A.u.8 # # * = 9 < B P ! ~ P B B B z 4.4.b V P ~ ~ ! ~ ~ ! ! ! P P ! ! ! ~ ~ ! ! ",
"~ ~ ! I b 5.J.P.N.m.m.i.i.p.p.p.p.u.d.g.l.l.j.j.g.u.q.w w v t.>.9 , C ~ ( V , & & j >X%X2.h K ~ ! ! ~ ! ! ! ! ! ! ! ! ! ~ ~ ~ ! ",
"~ ~ ~ G s %.n.P.K.m.k.f.f.u.f.g.u.d.d.g.l.l.j.d.d.u.g.g.u.h.W.f.0 - < M M < t ; % p 1XfX$Xc l F F G H I P ! ! ! ! ! ! ! ! ~ ! ! ",
"! ! ~ B = 3 >.m.k.k.k.d.d.d.d.d.g.d.d.g.d.j.j.g.d.g.g.g.g.h.h.f.w.q > o o > D z & r 3XvXcX>Xc 3 4 d #.x I S S ! S ! ! ! ! ! ! ! ",
"S P G k 3 0 e.f.j.j.j.j.j.d.d.d.d.g.d.d.d.d.d.g.g.g.g.g.g.g.d.i.i.v #   # > k l , z 3XNXNXcX2.a a @.&.%.k M N F F G P ! ! ! ! ! ",
"S G h $.1.n.k.j.d.s.j.j.k.j.d.u.u.g.g.d.d.d.d.d.d.g.g.g.d.d.d.f.f.v # X q w > > b N.qXMXMXcX,X6.5.5.8.,.3 - 1 3 6 0 K S ! ! S ! ",
"~ F 6 #.8.P.L.j.d.j.j.j.j.j.g.d.g.g.g.g.f.d.u.d.d.g.l.l.d.d.f.f.f.q.8 8 w.w.8 9 x.S.-X3XqXqX,XJ.a.1.a.<.0 2 5 7 O.d k K P ! ! ! ",
"~ F 4 O.1.K.k.f.k.k.j.d.g.l.z.B.B.z.z.h.g.i.u.u.d.d.l.l.d.u.d.d.f.t.q.q.t.d.w.r.x.E 9 h N.2XN.r.0 8 0 w +.q.e.1.1.,.s 9 K ~ ! ! ",
"M q 1 5 1.k.f.d.k.k.j.d.g.z.Q.^.^.W.W.E.A.M.f.d.d.l.z.l.d.d.d.d.j.j.d.d.d.d.z.M.i.R 9 9 x.m.r.h - # $ : w w.d.K.H.5.$.s D U P ! ",
"* $ @ 2 :.k.d.d.k.k.j.j.z.Q.{..X+XoXoX X X(.A.z.z.z.B.z.z.l.j.j.j.j.d.d.d.d.h.h.h.h.M.M.m.r.3 * $ $     # 8 e.K.K.H.5.-.c z Y ` ",
"+ +   $ q.h.d.d.k.k.L.L.!._..X@XaXjXjXjXjX@X(.W.W.E.E.E.B.l.j.j.j.g.d.d.d.g.g.z.E._.@XXXL.r.2 * 8 8 $ # # 8 e.F.K.K.P.J.6.c.b.Z.",
"+     $ R g.d.g.z.~.].oX|..X+X@XaXjXjXjXjX@X@XXX|.|.XX`.E.l.j.g.j.j.d.d.g.l.B.Q._.+XbX@X~.a.:.;.w.w.q.0.;.e.a.j.G.~.[.4X3X3X0X0X",
"+ +   $ q.l.g.z.E.].@XnX@X+X@X@XjXjXkXjXjXjXjXyX@X@X@XXX^.!.T.z.l.z.z.z.B.T.Q._.+XbXbX@X(.L.M.z.l.l.l.l.G.G.G.G.!.'.8XzX9X9X3X-X",
"@ @ + 2 t.T.V.V._.+X@X@XXXXX8XjXhXhXkXkXkXjXaX@X@X@X@X@X@X+X+X{.E.E.^.|.}.}.{.}.+XaXaXaXOX XoX^.E.B.B.B.T.!.'.|.oX@XjXmXzX/.b ; ",
"- * @ 5 a.!.Q.).+XtX@X@XXXXX8XjXhXhXkXkXkXaXaX@XtX8X@X@XaXbXbX+X^.W.|..X.X+X+X+XaXaXaXaXjXjXnX@X_.Q.R.Q.Q._..X@XjXnXjXjXjXm.=   ",
"M < = 5 a.~._..XbXbX+X.X@X@X@X6XlXlXkXkXaX+X+X@XnXnX@X@XoX+XbX+X^.W.^.^.!._.+XnXnXjXOXOXjXnXnXtX+X.X.X.X.X.XXX@XjXlXlXhX4Xa.1   ",
"~ F 3 7 1.~. XtXnXbX@X@X@X8X@XOXjXkXkXjX@X+X+X|.W.W.|.@X+X+X+X{.!.L.L.G.z.E.|.@XOX X]. X@XyXtXtXtXtXbXbXtX@X@X6X6X4XY.H.H.1.3 * ",
"S F 4 @.8.Y.5X8X8X8X8X8X@X@XjXjXaXaXaXbXtXrXrXV.w w E.tXbX+XR.F.l.k.k.j.j.k.k.M.M.M.W.(.XX@XXX@X+XtXbXbX8XjXlXhX4XJ.=.d a s k F ",
"S G x $.5.J./.5X6X8X8X8X@X@XjXjXaXaXaXbXtXrXrXp.$ $ V.bXbX+XT.s.j.j.j.k.k.f.t.t.u.f.M.W.`.|.XX@X@XaXaXjXhX4XY.P.J.,.6 ; 3 h G ( ",
"! P H l s c n.4X6XjX6X@X8X8X@X@X@X@XtXtXrXrX).y.# $ V.tXbX}.R.G.j.j.j.k.k.f.t.t.f.f.f.h.A.(.XX@XaXkXkXlXgXJ.-.#.#.$.k B F F P ! ",
"! ! T D 3 a 5./.4X6X@X@X@X@X@X@X@X@X@XrXrX).y.w : q E.tX@X+X{.!.F.j.j.k.k.h.f.f.h.h.i.f.A.(. X8XhXiXY.U.U.3.s 3 6 x L S S ! ! ! ",
"! ! T D 4 a 5.P.~.].@XtX@XXX@X@X8X8X7XXX`.p.8 : q u.`.tX@X+X+X'.G.j.d.d.j.k.h.f.h.h.f.M.(. X6XhXiXI.,.#.&.%.k F F G P ! ! ! ! ! ",
"! P P H h d ,.5.1.k.].@X@XXXrXXX7X7X5X(.i.w > > w.A. XnXjXjXjXOXK.F.j.k.k.f.w.q.t.k.m.L.[.6XlXgXU.,.7 5 d x I ! S S ! ! P P ! ! ",
"! P P P G k d O.5 +.F.oX@XtXrXXX7X5X5Xm.8 > w w.g.E.|.jXlXxXxXgXY.I.K.K.m.:.2 - ;.k.L./.[.lXxXdX7.$.k F D H P ! S ! ! ! ! ! ! ! ",
"~ ~ ~ ~ ~ L x 6 2 0 <.F.].@XXXXX5X4X/.r.$ # R B.B.E.].OX[.Y.Y.U.H.8.8.1.>.x = 2 ;.m.~.OXhXgXdXU.=.h L S ~ ~ ! ! ! ~ ~ ! ! ! ! ! ",
"' ' ' ' ) ) ` T F q 7 +.F.].XX7X[./.P.r.* # R h.h.B.~.K.<.#.%.%.#.#.@.7 5 6 :.r.a.L.].hXlXY.,.=.k L ! ( ) ( ! ! ( ) ) ) ! P P ! ",
"' ' [ ' ) ' { [ ) N 2 O.D./. X5X4X,Xn.x # # q R q.e.a.>.x 3 4 s 6 6 4 3 = 9 >.n.k.L.OXpXY.a.x 9 K ~ ( ) _ _ ( ( _ _ _ ( ! P ! ! ",
"~ ( ' ' ) ) ' ' ~ F 2 #.J.4X/.2X9X2Xc % . . # * 1 2 7 x D L L I H F F F B k x =.1.K.OX/.=.9 q K P ! ! ( ] ] _ _ _ _ ( ! P ! ! ~ ",
"P ~ ) ) ( ( ) ( L l -.3.,X3X-X-X0X-Xr . . . . X * = 3 9 P ' ) ) ~ ~ ! S S G d #.,.K.4XP.c h G P P ! ! ~ _ _ _ _ _ ) ~ ! ! ! ~ ~ ",
"! ! ~ ~ ! ~ ~ L x 2.>XfX1X=X:XeXuX;Xr . . . @ - < M F F P ~ ~ ~ ! ! ! S ! H %.&.3.J.P.2X3X*XQ J L ! ! ! ~ ( ! ~ ( ~ ~ ! ! ~ ~ ~ ",
"! ! ! ! ! ! ! G x 2.>XfX<X<XeXeX:X*Xn r % % d -.E I P S S P ! ! ! P ! ! ! I c 2.3.9.,X3X3X=X&Xc.Y P ! ! P P ! ! ! ~ ~ ~ ~ ! ! ~ ",
"P ! ! ! P ! ! P G z 2.$X<XeXeX:Xn n *X&X; 4 >XdX3.b L S S P ! ! ! ! ! ! ~ ! I b 2.9.fX1Xn n 1X1Xb.P P ! ! P ! ! ! ! ~ ~ ! ! ! ! ",
"! ! ! ! P P ! ! S V h n %XwX<X$Xe p &X&Xi a sXdX3.c E T P ! ! ! ! ! ! ! ~ ~ ! L z 6.1X>Xp g %X1Xb.P P ! ! ! ! ! P ! ! ! ! ! ! ! ",
"P P ! ! S ! ! ! ! Z V z 4.#X*.g y y f %.a a &.3.E E >.E Y S S ! ! ! ! ! ! ~ ! P L E x.2.u u *.4.E P S S S ! ! ! P P ! ! ! ! ! ! ",
"P P ! ! ! ! ! ! P ! S L j f i i i i i 4 s d d x L T E E Y S S ! ! ! P P ! ! ! ! S P J z j p f j I ! S P P ! ! ! P Z ! ! ! ! ! ! ",
"P ! ! ! ! ! ! ! P P S P G D D F F F F G G H H L P ! T T P ! ! ! ! ! ! P ! ! ! ! ! ! P L L G J I P ~ ! Z P ! ! ! P Z ! ! ! ! ! ! ",
"P ! ! ! ~ ~ ! ! P P P ! S S ! ! S S S ~ ~ ~ ~ ! ~ ~ ~ ! ! ! ! ! ! ! ! ! ! ! ! ! ! ! ! ~ ~ ~ ! ! ~ ~ ! ! P P ! ! P Z ! ! ! ! ! ! "
};
