/* XPM */
static char *_f55de1246da44f4a680672dc5f9d3ae5CBWAi1rvFWLePGK[] = {
/* columns rows colors chars-per-pixel */
"64 64 116 2 ",
"   c #271B0D",
".  c #281D0D",
"X  c #29230D",
"o  c #2B2B0D",
"O  c #302F0E",
"+  c #2B340D",
"@  c #2D3B0D",
"#  c #31340E",
"$  c #323C0E",
"%  c #2D2610",
"&  c #2F2B11",
"*  c #312D12",
"=  c #333412",
"-  c #383313",
";  c #363B13",
":  c #393C15",
">  c #343C1D",
",  c #2F410D",
"<  c #32440E",
"1  c #39450F",
"2  c #344C0E",
"3  c #3B4C0F",
"4  c #36510E",
"5  c #3A540F",
"6  c #3C5B0F",
"7  c #374212",
"8  c #3A4314",
"9  c #3C4A12",
"0  c #3C4518",
"q  c #3F491A",
"w  c #3C5410",
"e  c #3D5C10",
"r  c #3F600F",
"t  c #3F6010",
"y  c #3F4F23",
"u  c #3D5333",
"i  c #3F5A3B",
"p  c #40560F",
"a  c #415D0F",
"s  c #404D10",
"d  c #404719",
"f  c #414D1B",
"g  c #435511",
"h  c #425C10",
"j  c #495D12",
"k  c #44531D",
"l  c #4C511C",
"z  c #47591E",
"x  c #495C1F",
"c  c #50561D",
"v  c #41630F",
"b  c #426511",
"n  c #4B6212",
"m  c #466A11",
"M  c #496D11",
"N  c #506E12",
"B  c #4B7311",
"V  c #4F7A11",
"C  c #527312",
"Z  c #537C12",
"A  c #597E13",
"S  c #4A5F20",
"D  c #4B6120",
"F  c #4C6525",
"G  c #4D6926",
"H  c #496329",
"J  c #4A642A",
"K  c #49652D",
"L  c #4A6929",
"P  c #4B6A2A",
"I  c #4D6E2B",
"U  c #506421",
"Y  c #536622",
"T  c #546A23",
"R  c #596D23",
"E  c #5A7326",
"W  c #476330",
"Q  c #486631",
"!  c #486734",
"~  c #486837",
"^  c #476B3D",
"/  c #486838",
"(  c #4B7433",
")  c #4B7736",
"_  c #4C7534",
"`  c #4B7837",
"'  c #4C7837",
"]  c #4C7938",
"[  c #4C7C3C",
"{  c #627525",
"}  c #667926",
"|  c #687A27",
" . c #607E2A",
".. c #476B40",
"X. c #476C41",
"o. c #466D44",
"O. c #466E49",
"+. c #558012",
"@. c #568312",
"#. c #5A8013",
"$. c #598612",
"%. c #5C8613",
"&. c #5B8913",
"*. c #5C8A13",
"=. c #5D8C13",
"-. c #5E8E13",
";. c #5F9013",
":. c #5F9014",
">. c #608F13",
",. c #618F13",
"<. c #609013",
"1. c #619014",
"2. c #629414",
"3. c #649414",
"4. c #669814",
"5. c #66862C",
/* pixels */
"F D n D F F n D D D n D D D D D D D D D D F F D D S z z x z z z x D D S z z k z z D D D D F D D D D D D D D D D D D D D D D D D ",
"F F D F F n D D D D D D D D D D D D D D D S z z z f : 8 k q : : k z z z q ; ; : f x D D D D D D D D D D D D D D D D D D D D D D ",
"F F D F F D D D D D D D D D D D D D D D x k q 0 0 q g g 0 8 9 9 8 0 0 8 7 $ $ ; 8 f z S S D S S D D D D D H H D D D H D D D D D ",
"F F D D D D D D D D F D D D D F D S D D z q 8 ; # j %.#.g g M m 1 ; ; 9 h b b e ; = q k z S S S D D D D Q X.o.Q D / ..K D D D D ",
"D D D D D D D D D D F F F D F F D S D U k n A C 9 n ,.<.Z B Z B a b A #.$.Z m h $ o ; ; f z S S D D D D D ~ X.Q ! o.~ D D D D D ",
"D D D D D D F D D D G I _ F F F D S k q j #.3.1.A #.=.&.&.=.$.Z Z &.3.4.3.@.m b w 5 g w 9 q z S D F D D D F F D Q X.Q D D D D D ",
"D D D D D F ( P F F ' [ ' F D D D x q ; C 3.4.3.3.3.<.=.<.3.=.@.=.3.4.4.3.Z b b m B B M 9 : z S D F F D D F D D D D D D D D D D ",
"D D D D D F ) [ ` P ) ] P D D D D x q ; N ;.2.3.4.3.3.2.3.3.<.&.;.3.1.*.$.M 6 b B V Z B 1 ; z S D D F D D D D D D D D D D D D n ",
"D F D D D D P ' ` F F F D D x z z z q 8 m @.&.1.3.3.4.4.4.4.3.2.2.3.*.B b 6 5 t M B B M 1 : k z x D D D D D D D D D D D D D n D ",
"F F D D D D D F F D D D S x k 8 : ; q n A @.$.1.3.3.4.4.4.4.4.4.3.3.<.@.Z m 5 6 r v v 6 2 ; ; : f x D D D D D D S S D D D F D n ",
"F F D D D F D D D D D F S k q s 9 ; 9 #.2.=.=.2.3.3.3.3.3.3.3.3.3.3.3.3.<.B 6 b M b 5 5 4 < $ ; 8 f x D D D D D D D D D D F F D ",
"F D D D D F F F D D F F z : s A #.j j *.4.3.3.3.3.3.3.1.1.2.3.3.3.3.3.4.3.A B $.=.B 6 e e e e e 9 8 k x D D D D D D D D D F F F ",
"n n D D S D F F D F F F S : 9 A 1.%.%.<.4.4.4.4.3.3.<.$.@.=.3.3.4.4.4.3.3.,.=.1.,.m 3 e b b b b e 9 : k S S D D D D D D D D F D ",
"D n D D D S D D D F F D S : # j %.3.3.3.4.4.4.4.3.3.=.@.@.1.3.4.4.4.4.3.3.3.4.<.C 4 < e b t e b b 3 = f D D D D S D D D D D D D ",
"D D D D D D D D n D n D S : = g %.3.4.3.4.4.3.3.3.<.$.@.=.3.4.4.3.4.3.3.3.3.4.<.B 3 < 2 e 6 5 e e < = f D D D D S D D D D D D D ",
"D D D D D D D D D n n D z : 9 A 2.3.3.3.4.3.3.3.3.=.@.@.&.2.4.4.4.4.3.4.4.3.3.3.*.b < 2 6 6 4 4 4 $ = f D D D D S D D D D D D D ",
"D D S S D n n n D D S x k ; s $.2.3.3.4.4.4.3.4.4.2.&.Z @.=.3.3.3.3.3.3.4.3.4.3.2.B 5 M A B 6 4 2 $ = f D D D D D D D D D D D S ",
"D D S S D n n D D x k 8 ; * : M A *.3.4.4.3.3.3.4.3.*.Z @.:.3.3.3.3.3.3.4.4.4.4.3.#.Z *.3.*.B 5 < ; q z D D D D D D D D D D D D ",
"D D D D D D D D S k 0 8 $ O # w B &.3.4.3.3.3.3.3.;.Z B $.3.4.4.3.<.<.3.4.2.<.2.3.2.1.3.4.3.$.6 + ; k S D D F D D D D F D D D D ",
"D D F F F D D D z 8 8 n n 1 o $ C 1.4.4.3.3.2.1.=.A M M @.1.1.1.1.&.$.=.1.&.&.<.3.4.4.3.4.2.@.6 + ; k x n n F F D D F F D D D D ",
"D D D F F F F D z : 1 B V m 3 $ C 1.3.3.3.3.=.Z B m b b B Z @.@.@.Z Z @.@.Z @.=.3.3.4.4.2.@.b 4 < $ : k D D D F D D F F D D D D ",
"D D D D F F F z q 9 h B V V b 2 h Z $.*.1.3.@.b 6 6 6 e b B V V B B V Z V V Z $.&.=.3.2.@.b 5 4 2 $ = f D D D D D D D D D D D D ",
"D D D D D D D k ; w B V V B v 4 6 B @.@.&.$.B e 6 6 6 6 t m B B M B Z @.@.@.Z @.$.=.3.<.Z 6 2 2 2 $ = f D D D D R T D D D D D D ",
"D D D D D D z q = 3 B B B v 6 v Z *.*.@.@.B b b M B B M 6 e b m m B Z =.<.&.@.=.<.=.=.1.=.m < < 2 @ = q x n D R } R D D n D D D ",
"D D D D D x f ; o < 6 r 6 6 b A <.3.2.=.*.Z B B V V V B 6 4 6 b M B @.<.3.1.1.3.3.C n A 1.M < @ @ @ + : x U R } | R D D D D D D ",
"D D D D S f 8 9 3 5 6 v v 6 m =.3.3.3.3.2.$.Z V V V B b 2 < 2 6 M V A $.&.=.3.4.3.n $ s h 3 @ + + + + & l U R | E F D D D D D D ",
"D D D F T f 9 m B M M B B v b A 1.3.3.3.;.@.Z V V V B v 4 < , 2 6 B V V M A <.3.A s X X X o + + + + o X f D U T F D D D D D S D ",
"D D D D F d 8 m V V V V B r 6 M *.3.4.2.&.@.Z V V V B B M 6 2 @ < 5 m b 3 g #.#.g O .     X + + + + o o 8 z S D D D D D F F D D ",
"F F F D z : O 3 M V V V M 5 5 Z <.4.4.3.:.=.$.Z V V V V V B 6 @ + $ 1 $ o # 3 5 $ X . . . o < < @ @ $ $ ; q z S D D D D F F F D ",
"F F D D z ; # 3 M V V V M 4 h *.4.4.4.4.3.3.=.Z V V V V V V b < 2 3 $ o # 1 < @ + o . . o $ 2 2 < < 2 2 + * 0 z S D D D D F F F ",
"D D D D z ; $ m V B B V B 5 5 Z $.,.3.4.3.*.A Z V B B V V B a < h B n 1 h M b 3 < + o o @ 2 4 4 2 2 2 2 $ # ; q z x D D D D D D ",
"D D D S k : 9 B V B B B M 4 < 5 b A 2.4.*.M a M B m v B V b < # h Z B M B V B M b 5 < @ < 4 4 4 4 4 4 4 5 w 9 7 q z x D D D D D ",
"D D x z 8 9 n B V B M v 6 2 @ @ 4 B <.*.m 4 2 6 6 5 6 B B 5 + o p B Z Z V V V V B m 5 < 2 e 6 4 4 5 e e b b b w ; q z D D D n D ",
"D S z 0 9 n B V V V M 6 4 , + + < e M b 4 2 2 2 < $ 1 3 5 3 1 1 3 b B Z V V V V V B b 4 e b b 5 4 6 b b b b b h ; ; z D D D D n ",
"D x q ; h B V V V V B b 6 2 , < < < < < 2 2 2 < o o # # O 3 m m 5 h B Z V V B B B M b b b b b 6 5 6 t b b b b b ; = k D D D D D ",
"D S q $ b V V V V V B M m 6 6 b b 6 < @ < 2 < o X $ w 3 # 3 B V m M V Z V B M m m m b b b b b b t e 6 b b b b e ; : z D D F F D ",
"D D q ; b V B B V V B B B B B V V B 6 @ @ , + o $ w b b h b B V V V Z V B m b b b b b e 6 6 e b b b t b b b h 9 8 f z D D D F F ",
"D D k 8 9 p h M V V V V V V V V V V m 3 < @ o o 9 b b m B V V V V V Z V B m b b b b b e 5 5 6 b b b b b b b h 9 8 f z D D D D F ",
"D S z f = # 3 B V V V V V V V V V V B b e < o o < h b m M B B B B B B V V B m b b b b t 6 6 b b b b b b b b b e 7 : f z D D D D ",
"S D S k * + 5 B B B B V V V V V V V B m b e 1 X o 3 b b 6 b m M m m M B V B m b b b b t 6 6 b b e e b b 6 e b b 4 $ ; k D D D D ",
"D D S k = $ 5 r v 6 b B V M M B V B M b b b 9 o . $ 5 6 4 6 b b b b m M M m b b b b 6 6 5 5 6 6 5 5 6 6 5 5 6 6 5 $ = y / ~ J D ",
"D D S z 8 ; < 2 4 4 6 m m 6 6 b m b e e b b w o X @ 2 4 4 6 b b e e b b b b b b b b 6 4 4 2 2 2 2 4 4 4 4 4 4 4 4 $ = u O.^ H D ",
"D D D z q = o @ 2 4 4 4 5 4 4 5 5 4 2 < w e 2 @ + < 2 2 4 5 e e 2 4 b b b b b b b b e 5 4 2 @ @ < 2 2 4 4 4 4 2 2 $ > i ^ H D D ",
"D D x k ; % X o < 2 < < 2 4 2 2 2 < @ + @ < < @ < 2 4 4 4 2 < < @ 2 h b 6 6 6 b b b e 5 2 2 < @ @ < 2 2 2 2 4 2 $ ; y W J D D D ",
"D x k ; o o X X @ , @ @ 2 2 2 < 2 2 @ + + + @ 2 5 5 5 6 e 2 @ + + < 2 5 5 5 e b b b 5 2 2 2 < + @ 2 2 < , < 2 2 + ; z F F D D D ",
"x k : o + @ + + + + + @ < < @ + 2 2 < + + + < e b e e b b w 2 < @ @ < 2 4 6 b b b t 4 , @ $ + o @ 2 2 @ + @ < < + = q x D D D D ",
"z : o + + < 2 < @ + + + + o X o $ < @ o o + $ w e h b b b b e e 2 < 2 2 4 6 e b b b w @ o X X X + < < @ + + @ @ + o ; k D D D D ",
"z ; o + + < 2 2 @ + + + o X . . o o o X X X o + $ 9 b b b b b b e 4 2 2 4 4 4 2 e b w + . . . . X o + + + @ < < @ o & q D D D D ",
"x q = o o @ < 2 < @ + + o X . . X o X X X o X . X 1 b b e t b b b 3 < 2 4 2 , @ < 2 < o . X X o X X o @ < < 2 2 , o & f D D D D ",
"D z 0 X o @ < 2 2 @ + + + X X X o + o o o + o . . # 9 9 2 w b b w $ o @ < @ + + + @ + o X o + + o o + < 2 2 2 < @ & ; k D D D D ",
"D x 0 o $ 2 2 2 2 + o o o X X o + + + + + + o X X X o o o $ w w $ X . X o o + + + + + + + + + + + + @ < 2 2 @ @ O ; f S D D D D ",
"D x q = < 2 2 , @ o X X X X X + + + + + + + + o o X .   . o # # X .   . X + + + + + + + + + + + + + + @ 2 2 < + ; f S D D D D D ",
"F T z : $ @ + + + X . . . . X X o + + + + + + + + o X . . . . . . .   . o + + + + + + + + + + o + + + o $ 2 < + : S U U n D D D ",
"T  .E S : & X o o X . . . . . . . X + + + + + + + + o X . . . . . . . . o + + + + + + + + + o X X o o X + < $ ; f T { R n n n D ",
"F E 5. .z 0 * X X . . . . . . . . . o + + + + + + + o X . .   . . . . . X o + + + + + + + o X . . X X . X o ; f U | { U n D D D ",
"D F E E F x 0 X . . . . . . . X X . X + + o o + + o X . . . . . X X . . . X + + o o + + o X .   . . . . X - c U T E T D D D D F ",
"D D D D S S k : = & . . . . * : : * X o o X X X o X . . . . X = : ; = X . X o o X X o o X . . . . . X = ; f U U F F D D D D F F ",
"D D D D D D S z z 8 = * * = 0 x z f * X . . . . . . . . % * ; k z z f = X . . . . . . . . . X & * * ; f z x D D D F F F D F F F ",
"D D D D D D D D S z k k z z z S D x q * % % % % % % X * 0 f z x S S x f = % % % % % % % % % * q k k k x D D D D n D F F D D F D ",
"D D D n D D D D D D S D D F F D F F z q q q q q q q q q z S D D D D D x k q q q q q q q 0 q f z S S S D D D D D n D D F D D D D ",
"D D D D D D D D S S D D D F F D F F D x x x x x x x x S D D D D D D D D D F F D D D D x x S S D D D D D D D D D n D S D D D D D ",
"D D D D D D D D D S D D D D D D D S D n D D D D D D D D D D D D D D D D D D F D D D D D D D D D D D S D D D D D D D D D D D D D ",
"D D D D D D D D D S D D D D D D D D D D D D D D D D F D D D D D D D D D D D D D D D D D D D D D D D D D D D D D D D D D D D D D ",
"D D S S D F D D D D D D D D D D S D D F F F D D D F F D D n D D D D D D D D D D D D D F F F D D F F D D D D D D D D D D D D D D "
};
